<?xml version="1.0" encoding="UTF-8"?>
<svg id="Layer_2" data-name="Layer 2" xmlns="http://www.w3.org/2000/svg" xmlns:xlink="http://www.w3.org/1999/xlink" viewBox="0 0 733.42 388.5">
  <defs>
    <style>
      .cls-1 {
        fill: #bb3b06;
      }

      .cls-2 {
        fill: #982101;
      }

      .cls-3 {
        fill: #4aae58;
      }

      .cls-4 {
        fill: #fca51e;
      }

      .cls-5 {
        fill: #5cb85d;
      }

      .cls-6 {
        fill: #fb8c1f;
      }

      .cls-7 {
        fill: #9c2501;
      }

      .cls-8 {
        fill: #992101;
      }

      .cls-9 {
        fill: #50b15a;
      }

      .cls-10 {
        fill: #8c1a00;
      }

      .cls-11 {
        fill: #fb792a;
      }

      .cls-12 {
        fill: #9d2401;
      }

      .cls-13 {
        fill: #fb772b;
      }

      .cls-14 {
        fill: #fca31e;
      }

      .cls-15 {
        fill: #fb7a2a;
      }

      .cls-16 {
        fill: #f28e40;
      }

      .cls-17 {
        fill: #8b1900;
      }

      .cls-18 {
        fill: #fb8e1f;
      }

      .cls-19 {
        fill: #fa8920;
      }

      .cls-20 {
        fill: #fab46b;
      }

      .cls-21 {
        fill: #fb9b1e;
      }

      .cls-22 {
        fill: #38a454;
      }

      .cls-23 {
        fill: #992401;
      }

      .cls-24 {
        fill: #8d1b00;
      }

      .cls-25 {
        fill: #a32c04;
      }

      .cls-26 {
        fill: #982301;
      }

      .cls-27 {
        fill: #fa6482;
      }

      .cls-28 {
        fill: #9d2804;
      }

      .cls-29 {
        fill: #fa9023;
      }

      .cls-30 {
        fill: #bd3c07;
      }

      .cls-31 {
        fill: #952201;
      }

      .cls-32 {
        fill: #9b2603;
      }

      .cls-33 {
        fill: #3aa554;
      }

      .cls-34 {
        fill: #23984e;
      }

      .cls-35 {
        fill: #a12a04;
      }

      .cls-36 {
        fill: #9a2401;
      }

      .cls-37 {
        fill: #ae3205;
      }

      .cls-38 {
        clip-path: url(#clippath-4);
      }

      .cls-39 {
        fill: #fba01e;
      }

      .cls-40 {
        fill: #f38b3b;
      }

      .cls-41 {
        fill: #f5b575;
      }

      .cls-42 {
        fill: #fb8b24;
      }

      .cls-43 {
        fill: #facb80;
      }

      .cls-44 {
        fill: #4caf59;
      }

      .cls-45 {
        fill: #de631c;
      }

      .cls-46 {
        fill: #bf3d07;
      }

      .cls-47 {
        fill: #fa7521;
      }

      .cls-48 {
        fill: #f96c22;
      }

      .cls-49 {
        fill: #fa9d1e;
      }

      .cls-50 {
        fill: #a02a04;
      }

      .cls-51 {
        fill: #25994e;
      }

      .cls-52 {
        fill: #9e2804;
      }

      .cls-53 {
        fill: #be3d07;
      }

      .cls-54 {
        fill: #932103;
      }

      .cls-55 {
        fill: #39a554;
      }

      .cls-56 {
        fill: #fb8f1f;
      }

      .cls-57 {
        fill: #c64208;
      }

      .cls-58 {
        fill: #881800;
      }

      .cls-59 {
        fill: #fb921f;
      }

      .cls-60 {
        fill: #8a1b02;
      }

      .cls-61 {
        fill: #fb8925;
      }

      .cls-62 {
        fill: #fb8825;
      }

      .cls-63 {
        fill: #a22701;
      }

      .cls-64 {
        fill: #22984d;
      }

      .cls-65 {
        fill: #3e0b03;
      }

      .cls-66 {
        fill: #fb8d1f;
      }

      .cls-67 {
        fill: #49ad58;
      }

      .cls-68 {
        fill: #982403;
      }

      .cls-69 {
        fill: #5ab75d;
      }

      .cls-70 {
        fill: #fb8128;
      }

      .cls-71 {
        fill: #2d9e50;
      }

      .cls-72 {
        fill: #31a052;
      }

      .cls-73 {
        fill: #972301;
      }

      .cls-74 {
        fill: #fa9f1e;
      }

      .cls-75 {
        fill: #299c4f;
      }

      .cls-76 {
        fill: #f97121;
      }

      .cls-77 {
        fill: #fa9621;
      }

      .cls-78 {
        fill: #fa9e1e;
      }

      .cls-79 {
        fill: #fcaf1d;
      }

      .cls-80 {
        fill: #951f00;
      }

      .cls-81 {
        fill: #871c00;
      }

      .cls-82 {
        fill: #aa2f05;
      }

      .cls-83 {
        fill: #af3305;
      }

      .cls-84 {
        fill: #fb9d1e;
      }

      .cls-85 {
        fill: #8d1f00;
      }

      .cls-86 {
        fill: #36a353;
      }

      .cls-87 {
        fill: #a52d04;
      }

      .cls-88 {
        fill: #fa9720;
      }

      .cls-89 {
        fill: #b33506;
      }

      .cls-90 {
        fill: #a92f05;
      }

      .cls-91 {
        fill: #c54107;
      }

      .cls-92 {
        fill: #fb782b;
      }

      .cls-93 {
        fill: #fa9222;
      }

      .cls-94 {
        fill: #42a956;
      }

      .cls-95 {
        fill: #871700;
      }

      .cls-96 {
        fill: #43aa56;
      }

      .cls-97 {
        fill: #37a353;
      }

      .cls-98 {
        fill: #fa7d20;
      }

      .cls-99 {
        fill: #fb8427;
      }

      .cls-100 {
        fill: #59b65d;
      }

      .cls-101 {
        fill: #33a152;
      }

      .cls-102 {
        fill: #3f0e05;
      }

      .cls-103 {
        fill: #a52801;
      }

      .cls-104 {
        fill: #831701;
      }

      .cls-105 {
        fill: #f96922;
      }

      .cls-106 {
        fill: #faa61b;
      }

      .cls-107 {
        fill: #47ac57;
      }

      .cls-108 {
        fill: #bc3b07;
      }

      .cls-109 {
        fill: none;
      }

      .cls-110 {
        fill: #942101;
      }

      .cls-111 {
        fill: #f96622;
      }

      .cls-112 {
        fill: #4eb059;
      }

      .cls-113 {
        fill: #4fb15a;
      }

      .cls-114 {
        fill: #7e1900;
      }

      .cls-115 {
        fill: #440a02;
      }

      .cls-116 {
        fill: #ab3005;
      }

      .cls-117 {
        fill: #fb7b2a;
      }

      .cls-118 {
        fill: #fb9f1e;
      }

      .cls-119 {
        fill: #400a02;
      }

      .cls-120 {
        fill: #fcaa1d;
      }

      .cls-121 {
        fill: #fa9b1f;
      }

      .cls-122 {
        fill: #fa7421;
      }

      .cls-123 {
        fill: #8e1e02;
      }

      .cls-124 {
        fill: #c84308;
      }

      .cls-125 {
        fill: #8a1e00;
      }

      .cls-126 {
        fill: #fa7a21;
      }

      .cls-127 {
        fill: #440c04;
      }

      .cls-128 {
        fill: #58b65c;
      }

      .cls-129 {
        fill: #440c05;
      }

      .cls-130 {
        fill: #ad3105;
      }

      .cls-131 {
        fill: #8e1f00;
      }

      .cls-132 {
        fill: #7d1800;
      }

      .cls-133 {
        fill: #881a02;
      }

      .cls-134 {
        fill: #48ad58;
      }

      .cls-135 {
        fill: #b93906;
      }

      .cls-136 {
        fill: #fc6180;
      }

      .cls-137 {
        fill: #4daf59;
      }

      .cls-138 {
        fill: #fa9421;
      }

      .cls-139 {
        fill: #8b1c02;
      }

      .cls-140 {
        fill: #56b45c;
      }

      .cls-141 {
        fill: #fb981f;
      }

      .cls-142 {
        clip-path: url(#clippath-1);
      }

      .cls-143 {
        fill: #fca61e;
      }

      .cls-144 {
        fill: #c13e07;
      }

      .cls-145 {
        fill: #fa9322;
      }

      .cls-146 {
        fill: #289b4f;
      }

      .cls-147 {
        fill: #fa7f20;
      }

      .cls-148 {
        fill: #279a4f;
      }

      .cls-149 {
        fill: #fb7e29;
      }

      .cls-150 {
        fill: #f97021;
      }

      .cls-151 {
        fill: #f96d22;
      }

      .cls-152 {
        fill: #fa8820;
      }

      .cls-153 {
        fill: #e76e26;
      }

      .cls-154 {
        fill: #fb7f28;
      }

      .cls-155 {
        fill: #40a856;
      }

      .cls-156 {
        fill: #fa7821;
      }

      .cls-157 {
        fill: #891d00;
      }

      .cls-158 {
        fill: #881d00;
      }

      .cls-159 {
        fill: #941f00;
      }

      .cls-160 {
        fill: #962201;
      }

      .cls-161 {
        fill: #fb7c29;
      }

      .cls-162 {
        fill: #fa7921;
      }

      .cls-163 {
        fill: #fcad1d;
      }

      .cls-164 {
        fill: #faa51c;
      }

      .cls-165 {
        fill: #9b2201;
      }

      .cls-166 {
        fill: #3ca655;
      }

      .cls-167 {
        fill: #faa71b;
      }

      .cls-168 {
        fill: #962303;
      }

      .cls-169 {
        fill: #f97923;
      }

      .cls-170 {
        fill: #f96e21;
      }

      .cls-171 {
        fill: #fa9c1f;
      }

      .cls-172 {
        fill: #fa9521;
      }

      .cls-173 {
        fill: #932101;
      }

      .cls-174 {
        fill: #fcac1d;
      }

      .cls-175 {
        fill: #fa8720;
      }

      .cls-176 {
        fill: #a52901;
      }

      .cls-177 {
        fill: #fa7c20;
      }

      .cls-178 {
        fill: #9b2401;
      }

      .cls-179 {
        fill: #fb8c24;
      }

      .cls-180 {
        fill: #41a956;
      }

      .cls-181 {
        fill: #7f1900;
      }

      .cls-182 {
        fill: #9e2401;
      }

      .cls-183 {
        fill: #fa7321;
      }

      .cls-184 {
        fill: #922003;
      }

      .cls-185 {
        fill: #ac3105;
      }

      .cls-186 {
        fill: #2c9d50;
      }

      .cls-187 {
        fill: #7c1800;
      }

      .cls-188 {
        fill: #8b1e00;
      }

      .cls-189 {
        fill: #3ba654;
      }

      .cls-190 {
        fill: #9a2603;
      }

      .cls-191 {
        fill: #8f1e02;
      }

      .cls-192 {
        fill: #faa01d;
      }

      .cls-193 {
        fill: #f96822;
      }

      .cls-194 {
        fill: #821a00;
      }

      .cls-195 {
        fill: #4bae59;
      }

      .cls-196 {
        fill: #e66b21;
      }

      .cls-197 {
        fill: #fba21e;
      }

      .cls-198 {
        fill: #931e00;
      }

      .cls-199 {
        fill: #44aa57;
      }

      .cls-200 {
        fill: #24994e;
      }

      .cls-201 {
        fill: #5eb95e;
      }

      .cls-202 {
        fill: #fb931f;
      }

      .cls-203 {
        fill: #a32701;
      }

      .cls-204 {
        fill: #fa8620;
      }

      .cls-205 {
        fill: #450d05;
      }

      .cls-206 {
        fill: #942203;
      }

      .cls-207 {
        fill: #2f9f51;
      }

      .cls-208 {
        fill: #fb7d29;
      }

      .cls-209 {
        clip-path: url(#clippath-3);
      }

      .cls-210 {
        fill: #fa8120;
      }

      .cls-211 {
        fill: #912001;
      }

      .cls-212 {
        fill: #fb901f;
      }

      .cls-213 {
        fill: #a72e05;
      }

      .cls-214 {
        fill: #54b35b;
      }

      .cls-215 {
        fill: #7b1700;
      }

      .cls-216 {
        fill: #53b35b;
      }

      .cls-217 {
        fill: #9c2704;
      }

      .cls-218 {
        fill: #851801;
      }

      .cls-219 {
        fill: #b83906;
      }

      .cls-220 {
        fill: #fca91d;
      }

      .cls-221 {
        fill: #32a152;
      }

      .cls-222 {
        fill: #fc617f;
      }

      .cls-223 {
        fill: #8e1b00;
      }

      .cls-224 {
        fill: #9c2301;
      }

      .cls-225 {
        fill: #57b55c;
      }

      .cls-226 {
        fill: #f9b05c;
      }

      .cls-227 {
        fill: #691100;
      }

      .cls-228 {
        fill: #9f2c05;
      }

      .cls-229 {
        fill: #c74208;
      }

      .cls-230 {
        fill: #b13405;
      }

      .cls-231 {
        fill: #fa8220;
      }

      .cls-232 {
        fill: #a02501;
      }

      .cls-233 {
        fill: #c03e07;
      }

      .cls-234 {
        fill: #f96a22;
      }

      .cls-235 {
        fill: #8a1900;
      }

      .cls-236 {
        fill: #a82e05;
      }

      .cls-237 {
        fill: #faa31c;
      }

      .cls-238 {
        fill: #fb991f;
      }

      .cls-239 {
        fill: #7a1700;
      }

      .cls-240 {
        fill: #8c1d02;
      }

      .cls-241 {
        fill: #a42c04;
      }

      .cls-242 {
        fill: #fa9820;
      }

      .cls-243 {
        fill: #a42801;
      }

      .cls-244 {
        fill: #2b9d50;
      }

      .cls-245 {
        fill: #fb8e23;
      }

      .cls-246 {
        fill: #55b45b;
      }

      .cls-247 {
        fill: #52b25b;
      }

      .cls-248 {
        fill: #901f02;
      }

      .cls-249 {
        fill: #a22b04;
      }

      .cls-250 {
        fill: #faa11d;
      }

      .cls-251 {
        fill: #fb8028;
      }

      .cls-252 {
        fill: #c44007;
      }

      .cls-253 {
        fill: #340803;
      }

      .cls-254 {
        fill: #35a253;
      }

      .cls-255 {
        fill: #fa7221;
      }

      .cls-256 {
        fill: #a12701;
      }

      .cls-257 {
        fill: #b73806;
      }

      .cls-258 {
        fill: #f96722;
      }

      .cls-259 {
        fill: #5bb75d;
      }

      .cls-260 {
        fill: #f8ba68;
      }

      .cls-261 {
        fill: #831b00;
      }

      .cls-262 {
        fill: #b03305;
      }

      .cls-263 {
        fill: #fb8a25;
      }

      .cls-264 {
        fill: #a32801;
      }

      .cls-265 {
        fill: #972001;
      }

      .cls-266 {
        fill: #922101;
      }

      .cls-267 {
        fill: #fb971f;
      }

      .cls-268 {
        fill: #9f2904;
      }

      .cls-269 {
        fill: #b53706;
      }

      .cls-270 {
        fill: #fb941f;
      }

      .cls-271 {
        fill: #46ab57;
      }

      .cls-272 {
        fill: #fb951f;
      }

      .cls-273 {
        fill: #a02601;
      }

      .cls-274 {
        fill: #fb8526;
      }

      .cls-275 {
        fill: #911d00;
      }

      .cls-276 {
        fill: #c94408;
      }

      .cls-277 {
        fill: #fca71e;
      }

      .cls-278 {
        fill: #f96b22;
      }

      .cls-279 {
        fill: #fa9920;
      }

      .cls-280 {
        fill: #851c00;
      }

      .cls-281 {
        fill: #912002;
      }

      .cls-282 {
        fill: #f9e5bc;
      }

      .cls-283 {
        fill: #51b25a;
      }

      .cls-284 {
        fill: #c23f07;
      }

      .cls-285 {
        fill: #fa7e20;
      }

      .cls-286 {
        fill: #3da755;
      }

      .cls-287 {
        fill: #fa9a1f;
      }

      .cls-288 {
        fill: #972403;
      }

      .cls-289 {
        fill: #fa8320;
      }

      .cls-290 {
        fill: #f9dfa7;
      }

      .cls-291 {
        fill: #30a051;
      }

      .cls-292 {
        fill: #861c00;
      }

      .cls-293 {
        fill: #320802;
      }

      .cls-294 {
        fill: #8d1d02;
      }

      .cls-295 {
        fill: #fca81d;
      }

      .cls-296 {
        fill: #841701;
      }

      .cls-297 {
        fill: #891800;
      }

      .cls-298 {
        fill: #8f2000;
      }

      .cls-299 {
        fill: #871901;
      }

      .cls-300 {
        fill: #fba11e;
      }

      .cls-301 {
        fill: #b23506;
      }

      .cls-302 {
        fill: #b63706;
      }

      .cls-303 {
        fill: #fb8327;
      }

      .cls-304 {
        fill: #921e00;
      }

      .cls-305 {
        fill: #fb8b20;
      }

      .cls-306 {
        fill: #9f2601;
      }

      .cls-307 {
        fill: #34a252;
      }

      .cls-308 {
        fill: #a12601;
      }

      .cls-309 {
        clip-path: url(#clippath-2);
      }

      .cls-310 {
        fill: #fcab1d;
      }

      .cls-311 {
        fill: #8f1c00;
      }

      .cls-312 {
        fill: #fa7621;
      }

      .cls-313 {
        fill: #952203;
      }

      .cls-314 {
        fill: #fb911f;
      }

      .cls-315 {
        fill: #c34007;
      }

      .cls-316 {
        fill: #811a00;
      }

      .cls-317 {
        fill: #faa21d;
      }

      .cls-318 {
        fill: #fc6280;
      }

      .cls-319 {
        fill: #fb9c1e;
      }

      .cls-320 {
        fill: #cb4508;
      }

      .cls-321 {
        fill: #fa8420;
      }

      .cls-322 {
        fill: #f96f21;
      }

      .cls-323 {
        fill: #269a4e;
      }

      .cls-324 {
        fill: #fb9a1e;
      }

      .cls-325 {
        fill: #fa9122;
      }

      .cls-326 {
        fill: #801a00;
      }

      .cls-327 {
        fill: #5db85e;
      }

      .cls-328 {
        fill: #21974d;
      }

      .cls-329 {
        fill: #2e9e51;
      }

      .cls-330 {
        fill: #3ea755;
      }

      .cls-331 {
        fill: #fc6381;
      }

      .cls-332 {
        fill: #fcae1d;
      }

      .cls-333 {
        fill: #fb8726;
      }

      .cls-334 {
        fill: #ba3a06;
      }

      .cls-335 {
        fill: #faa41c;
      }

      .cls-336 {
        fill: #861901;
      }

      .cls-337 {
        fill: #fa7b21;
      }

      .cls-338 {
        fill: #b43606;
      }

      .cls-339 {
        fill: #841b00;
      }

      .cls-340 {
        fill: #fca41e;
      }

      .cls-341 {
        fill: #fb9e1e;
      }

      .cls-342 {
        fill: #9a2201;
      }

      .cls-343 {
        fill: #fa7721;
      }

      .cls-344 {
        clip-path: url(#clippath);
      }

      .cls-345 {
        fill: #fb8d24;
      }

      .cls-346 {
        fill: #992503;
      }

      .cls-347 {
        fill: #ca4408;
      }

      .cls-348 {
        fill: #45ab57;
      }

      .cls-349 {
        fill: #2a9c50;
      }

      .cls-350 {
        fill: #fa8520;
      }

      .cls-351 {
        fill: #fb8626;
      }

      .cls-352 {
        fill: #821601;
      }

      .cls-353 {
        fill: #901c00;
      }

      .cls-354 {
        fill: #fb961f;
      }

      .cls-355 {
        fill: #9d2501;
      }

      .cls-356 {
        fill: #fa8020;
      }

      .cls-357 {
        fill: #8c1f00;
      }

      .cls-358 {
        fill: #fb8227;
      }

      .cls-359 {
        fill: #891b02;
      }

      .cls-360 {
        fill: #9f2501;
      }

      .cls-361 {
        fill: #a62901;
      }

      .cls-362 {
        fill: #9e2601;
      }
    </style>
    <clipPath id="clippath">
      <path class="cls-109" d="M257.98,42.89c-4.93,4.51-11.25,7.54-17.87,10.23-19.41,7.89-38.9,14.04-58.8,19.03l-19.53,4.57c-17.92,4.19-35.43,8.01-52.66,13.3-12.8,4.52-25.9,9.58-37.87,16.21-11.81,6.54-23.19,14.23-31.91,24.89-6.3,7.7-8.71,16.4-5.16,26.85-27.05-26.05-23.77-65.67,3.27-91.54,7.38-7.06,15.51-13.41,24.65-17.97l21.61-10.77c23.11-9.23,46.69-15.38,70.77-19.27,37.05-5.98,74.67-8.51,112.65-6.45,1.76.1,3.04.4,3.59,1.24,3.59,5.49-3.79,21.48-12.75,29.68Z"/>
    </clipPath>
    <clipPath id="clippath-1">
      <path class="cls-109" d="M16.36,297.3c17.52,14.87,58.76,14.37,84.07,11.53,49.14-5.52,96.84-20.44,138.35-46.88,23.15-14.74,44.4-36.09,51.96-61.69l3.48-2.05,1.09,48.94c.69,31.13-15.62,57.45-39.26,76.97-42.81,35.35-99.6,49.98-154.78,52.24-26.74,1.1-86.96-3.4-87.25-32.22l-.44-43.77c-.01-1.03.38-1.94.79-2.57.31-.47,1.15-.72,1.98-.51Z"/>
    </clipPath>
    <clipPath id="clippath-2">
      <path class="cls-109" d="M245.28,227.12c.02,8.39-18.8,18.7-29.1,24.24-1,.54-2.55.27-3.35-.03-.89-.35-1.8-1.42-1.8-3.25l-.12-101.65c0-2.74-.46-6.87,3-7.49,10.93-1.98,31.14,3.19,31.15,7.41l.21,80.77Z"/>
    </clipPath>
    <clipPath id="clippath-3">
      <path class="cls-109" d="M190.53,263.1l-24.09,10.24c-1.39.59-5.46,1.03-5.49-1.3l-1.22-94.08c8.75-6,28.35-9.94,32.55-6.27,1.09.95.92,2.75.93,4.5l.16,81.93c0,2.07-.7,4.07-2.84,4.98Z"/>
    </clipPath>
    <clipPath id="clippath-4">
      <path class="cls-109" d="M141.55,276.55c.03,2.16-1.16,4.1-2.6,4.42-10.19,2.26-19.86,4.83-31.11,5.46l-1.55-82.19c-.05-2.43,1.56-4.24,4-4.32l25.95-.86c2.61-.09,4.19,1.52,4.23,4.13l1.08,73.37Z"/>
    </clipPath>
  </defs>
  <g id="Layer_1-2" data-name="Layer 1">
    <g>
      <g>
        <g>
          <path class="cls-127" d="M562.86,139.82l11.9,8.41c-6,10.73-17.46,15.94-29.48,15.87-20.88-.12-36.6-16.25-36.41-36.9.16-18.2,12.14-32.41,30.17-35.39,13.11-2.17,26.37,2.33,34.57,13.96l-11.49,9.95c-5.38-6.89-12.49-10.31-20.75-8.19-6.93,1.78-12.67,7.44-14.41,15.41-2.06,9.44,1.91,19.04,9.97,23.21,8.84,4.57,19.24,2.44,25.94-6.33Z"/>
          <path class="cls-205" d="M428.63,110.19c-.47-23.76-17.18-42.34-40.76-45.81-14.34-2.11-28.51-1.48-43.79-1.08l-.24,95.84c0,1.73.89,3.72,2.75,3.7l35.7-.42c29.6-2.31,46.92-22.42,46.33-52.22ZM406.59,126.06c-4.2,11.7-14.28,18.24-26.17,19.36l-18.07-.07.17-64.58c18.8-1.63,37.63,1.09,44.06,19.1,2.95,8.27,3.15,17.42,0,26.19Z"/>
          <path class="cls-205" d="M635.84,100.52c-8.85-8.87-21.52-11.56-33.85-7.58-10.14,3.27-18.43,11.56-21.93,23.17-4.99,16.54.84,35.14,16.71,43.52,15.52,8.2,34.94,4.61,47.41-7-3-4.21-6.11-7.4-9.8-10.67-6.69,6.31-15.33,9.37-24.58,7.19-7.97-1.88-13.33-8.14-14.3-15.77l50.5-.38c1.24-12.04-1.71-24.01-10.15-32.48ZM595.56,121.29c.61-9.54,7.97-16.45,16.32-16.89,9.52-.5,17.04,6.37,17.89,16.94l-34.21-.05Z"/>
          <path class="cls-129" d="M468.74,91.69c-19.85,0-35.94,16.09-35.94,35.94s16.09,35.94,35.94,35.94,35.94-16.09,35.94-35.94-16.09-35.94-35.94-35.94ZM482.78,141.13c-3.24,4.79-8.48,6.94-13.11,7.29-5.23.39-10.69-2.16-14.15-6.63-5.68-7.34-6.05-17.8-1.59-25.82,2.98-5.35,8.45-8.55,13.88-8.97,5.88-.45,11.54,2.52,15.07,7.63,5.31,7.69,5.39,18.41-.09,26.5Z"/>
        </g>
        <g>
          <path class="cls-119" d="M226.75,81.65c-40.39,12.22-79.32,15.84-116.45,29.57-17.18,6.35-39.45,18.07-44.91,35.02-2.8,8.7-.01,17.38,7.54,22.23,13.4,8.6,33.33,6.32,47.49-.1l32.92-14.93c26.17-11.86,52.43-.06,44.99,4.35-2.78,1.65-14.38-7.88-37.51.98l-27.32,13.6c-15.79,7.86-31.45,13.65-48.97,16.14C42.04,194.54,2.48,163.2.13,120.28c-1.29-23.56,6.76-44.73,22.61-61.63C59.6,19.37,137.76,5.6,190.8,1.64,215.2-.17,238.72-.14,263.19.14l21.91.25c10.67.12,17.94,9.17,17.48,19.78-.64,14.74-7.98,21.52-1.83,35.46,5.03,11.39,5.44,23.92-5.1,28.88-3.45,1.62-4.48,4.85-3.26,8.36l6.18,17.81c2.24,6.46-2.06,12.85-9.06,13.87-8,1.17-15.57-5.36-15.08-13.46l.79-12.93c.6-9.79-4.78-18.48-10.3-16.99-3.92,1.05-1.6,15.48-14.35,17.01-6.51.78-13.94-2.12-15.35-8.96-.52-2.51-.18-5.01-2.08-6.51-1.44-1.14-4-1.78-6.4-1.06Z"/>
          <g>
            <path class="cls-153" d="M37.46,66.42l-.79,3.61c-21.69,21.92-26.55,56.53-6.2,80.97-.66-21.36,20.52-34.82,36.96-44.92l3.82.14c4.18-1.21,9.25.52,4.98,4.52-11.64,6.44-22.52,14.09-30.9,24.28-7.7,9.37-6.49,21,1.88,29.35,10.07,10.04,23.21,12.65,38.04,14.7-15.98,4.13-31.32-.94-44.27-9.63-19.12-13.52-30.75-34.59-29.61-58.31.89-18.48,9.16-34.54,21.88-47.42,2.13-2.01,5.14-.1,4.21,2.72Z"/>
            <path class="cls-227" d="M282.88,39.03c1.02,2.77.94,5.97-.24,9.58.46,3.28-.12,5.81-1.74,7.6,2.02,4,3.21,8.42,3.57,13.23,1.52,2.33,2.49,4.52,2.91,6.56-3.28,4.42-4.67,9.92-3.32,15.11-.71.55-1.43.52-2.14-.04-3.06-8.95-12.13-20.5-20.68-17.44-3.02,1.08-6.42,4.26-6.35,7.89-2.78.65-4.86,2.98-6.25,6.98l-2.53.88c-5.47-1.96-3.41-7.32-5.18-8.88l-9.25-8.13c1.45-2.74,4.09-3.46,6.49-4.24,11.22-3.62,20.93-8.66,30.11-15.92,12.34-9.75,17.27-24.94,18.56-39.99.67-.51,1.32-.56,2.08-.28,6.26,2.31-2.04,22.82-3.7,26.42l-2.36.64Z"/>
            <path class="cls-290" d="M264.22,45.64c-2.12,1.47-6.56.06-6.24-2.75l-.3-2.48c4.22-1.33,16.01-25.82,11.08-26.22-36.58-2.95-73.54.95-109.94,4.9l-4.32-.67c-2.64.13-8.02-.36-6.08-3.35,41.95-7.5,81.41-7.94,123.82-6.53,1.96.07,3.68-.12,5.03,1.08,4.88,4.35-2.37,27.45-13.04,36.02Z"/>
            <path class="cls-226" d="M230.35,63.58c-21.68,7.91-43.35,13.32-65.89,18.73l-42.38,10.18c-2.18-1.55-5.15-1.43-8.89.36-2.72.53-5.01.21-4.07-2.84.91-.82,1.85-1.6,2.86-2.26s1.99-1.26,3.06-1.59c20.28-6.2,44.02-11.69,64.41-15.65l1.85,1.62,2.24.27c14.21-3.51,28.32-7.47,42.33-11.88,2.76-.13,4.47-.13,4.47,3.05Z"/>
            <path class="cls-260" d="M148.41,15.07c.09.9,1.34,1.44,3,.86,1.83-.45,2.36,1.61-.09,1.73.85.93,2.09.66,3.17.76l-3.05,1.86c-30.31,6.44-60.93,14.69-87.16,29.34l-2.16-1.16c-3.37.92-5.37.16-5.99-2.27,27.93-16.87,60.09-25.35,92.29-31.11Z"/>
            <path class="cls-43" d="M264.22,45.64l-6.96,5.6c-8.52,5.35-17.45,8.9-26.9,12.35-2.11-1.57-4.99-1.52-7.77-.19-4.22,2.02-8.57,2.1-12.95,3.23l-25.54,6.55c-1.21.31-2.26-.36-2.78-1.02,2-1.49,4.09-2.98,6.49-3.74,24.38-5.43,46.79-13.97,67.23-25.62l2.95.11c2.32.7,4.41,1.18,6.24,2.75Z"/>
            <path class="cls-40" d="M122.08,92.5c-15.99,4.86-31.25,10.18-45.85,18.25.37-1.8-.39-3.23-2.33-3.42-1.16-.11-2.05-.49-2.65-1.11.44-.83.92-1.63,1.51-2.33,2.98-3.6,28.92-14.56,33.65-14.32.91.05,1.81.23,2.71.45.87.98,2.09,1.29,3.7.88l6.49-1.62c1.06-.26,2.01.11,2.54.75.4.48.51,1.4.23,2.47Z"/>
            <path class="cls-282" d="M286.96,45.71c-2.9-.49-4.16-3.94-4.08-6.68l5.38-14.87c1.48-4.09,1.58-8.93-1.4-11.91l-.48-1.73c-.14-.49,2.16-.58,2.84-.25,5.47,2.67,6.54,9.08,4.74,14.61l-7,20.84Z"/>
            <path class="cls-169" d="M293.45,63.14c1.43,2.71,2.64,5.83,1.44,9.12-1.04,2.83-4.36,5.03-7.5,3.74-6.84-2.79-5.64-14.22-6.48-19.79,2.71-.1,5.24,1.62,7.59,5.14,1.98.35,3.63.95,4.96,1.79Z"/>
            <path class="cls-20" d="M286.96,45.71c.74,4.1,1.45,7.87,3.7,12.14l2.79,5.29c-6.41,2.95-7.52-2.55-12.55-6.93-.93-6.16-.13-11.36,1.98-17.18,2.23,1.31,3.66,4.34,4.08,6.68Z"/>
            <path class="cls-16" d="M62.11,48.46c-2.89,3.82-6.82,7.04-11.79,9.65-4,4.09-8.28,6.86-12.86,8.32l-4.21-2.72c6.81-6.9,14.4-12.41,22.86-17.52,2.09.41,4.18.47,5.99,2.27Z"/>
            <path class="cls-228" d="M284.06,91.11l2.38,9.14c-.62,5.61.57,9.58,3.56,11.9.02,1.48-.47,2.92-1.81,3.51-1.42.62-3.15.24-4.36-1.18-4.75-5.58,1.23-14.2-1.92-23.41.12-.55.63-1,.83-.88l1.31.91Z"/>
            <path class="cls-45" d="M254.9,81.53c.05,2.59-.29,5.68-2.52,7.73-1.96,1.8-4.48.78-6.26.14,1.5-4.14,5.3-9.72,6.75-9.87,1.03-.1,1.85.83,2.02,2Z"/>
            <path class="cls-41" d="M290.01,112.16c-.62.97-2.8,1.4-3.64-.25-1.77-3.51-1.62-8.39.08-11.65,1.04,4,3.5,7.63,3.56,11.9Z"/>
            <g class="cls-344">
              <polygon class="cls-320" points="274.32 20.97 260.81 9.91 274.32 9.91 274.32 20.97"/>
              <polygon class="cls-320" points="274.32 25.45 255.34 9.91 260.81 9.91 274.32 20.97 274.32 25.45"/>
              <polygon class="cls-347" points="274.32 28.82 273.78 29.49 249.87 9.91 255.34 9.91 274.32 25.45 274.32 28.82"/>
              <polygon class="cls-276" points="273.78 29.49 271.58 32.17 244.4 9.91 249.87 9.91 273.78 29.49"/>
              <polygon class="cls-124" points="271.58 32.17 269.38 34.85 238.93 9.91 244.4 9.91 271.58 32.17"/>
              <polygon class="cls-229" points="269.38 34.85 267.19 37.53 233.46 9.91 238.93 9.91 269.38 34.85"/>
              <polygon class="cls-57" points="267.19 37.53 264.99 40.21 227.99 9.91 233.46 9.91 267.19 37.53"/>
              <polygon class="cls-91" points="264.99 40.21 262.8 42.89 222.52 9.91 227.99 9.91 264.99 40.21"/>
              <polygon class="cls-252" points="262.8 42.89 260.6 45.57 217.05 9.91 222.52 9.91 262.8 42.89"/>
              <polygon class="cls-315" points="260.6 45.57 258.4 48.25 211.58 9.91 217.05 9.91 260.6 45.57"/>
              <polygon class="cls-284" points="258.4 48.25 256.21 50.94 206.11 9.91 211.58 9.91 258.4 48.25"/>
              <polygon class="cls-144" points="256.21 50.94 254.01 53.62 200.64 9.91 206.11 9.91 256.21 50.94"/>
              <polygon class="cls-233" points="254.01 53.62 251.82 56.3 195.17 9.91 200.64 9.91 254.01 53.62"/>
              <polygon class="cls-46" points="251.82 56.3 249.62 58.98 189.7 9.91 195.17 9.91 251.82 56.3"/>
              <polygon class="cls-53" points="249.62 58.98 247.43 61.66 184.23 9.91 189.7 9.91 249.62 58.98"/>
              <polygon class="cls-30" points="247.43 61.66 245.23 64.34 178.76 9.91 184.23 9.91 247.43 61.66"/>
              <polygon class="cls-108" points="245.23 64.34 243.03 67.02 173.29 9.91 178.76 9.91 245.23 64.34"/>
              <polygon class="cls-1" points="243.03 67.02 240.84 69.71 167.82 9.91 173.29 9.91 243.03 67.02"/>
              <polygon class="cls-334" points="240.84 69.71 238.64 72.39 162.35 9.91 167.82 9.91 240.84 69.71"/>
              <polygon class="cls-135" points="238.64 72.39 236.45 75.07 156.88 9.91 162.35 9.91 238.64 72.39"/>
              <polygon class="cls-219" points="236.45 75.07 234.25 77.75 151.41 9.91 156.88 9.91 236.45 75.07"/>
              <polygon class="cls-257" points="234.25 77.75 232.05 80.43 145.94 9.91 151.41 9.91 234.25 77.75"/>
              <polygon class="cls-302" points="232.05 80.43 229.86 83.11 140.47 9.91 145.94 9.91 232.05 80.43"/>
              <polygon class="cls-269" points="229.86 83.11 227.66 85.79 135 9.91 140.47 9.91 229.86 83.11"/>
              <polygon class="cls-338" points="227.66 85.79 225.47 88.48 129.53 9.91 135 9.91 227.66 85.79"/>
              <polygon class="cls-89" points="225.47 88.48 223.27 91.16 124.06 9.91 129.53 9.91 225.47 88.48"/>
              <polygon class="cls-301" points="223.27 91.16 221.08 93.84 118.59 9.91 124.06 9.91 223.27 91.16"/>
              <polygon class="cls-230" points="221.08 93.84 218.88 96.52 113.12 9.91 118.59 9.91 221.08 93.84"/>
              <polygon class="cls-262" points="218.88 96.52 216.68 99.2 107.65 9.91 113.12 9.91 218.88 96.52"/>
              <polygon class="cls-83" points="216.68 99.2 214.49 101.88 102.18 9.91 107.65 9.91 216.68 99.2"/>
              <polygon class="cls-37" points="214.49 101.88 212.29 104.56 96.71 9.91 102.18 9.91 214.49 101.88"/>
              <polygon class="cls-130" points="212.29 104.56 210.1 107.24 91.24 9.91 96.71 9.91 212.29 104.56"/>
              <polygon class="cls-185" points="210.1 107.24 207.9 109.93 85.77 9.91 91.24 9.91 210.1 107.24"/>
              <polygon class="cls-116" points="207.9 109.93 205.7 112.61 80.3 9.91 85.77 9.91 207.9 109.93"/>
              <polygon class="cls-82" points="205.7 112.61 203.51 115.29 75.11 10.14 75.31 9.91 80.3 9.91 205.7 112.61"/>
              <rect class="cls-90" x="136.48" y="-18.92" width="3.47" height="165.95" transform="translate(1.08 130.4) rotate(-50.68)"/>
              <rect class="cls-236" x="134.28" y="-16.24" width="3.47" height="165.95" transform="translate(-1.79 129.69) rotate(-50.68)"/>
              <rect class="cls-213" x="132.09" y="-13.56" width="3.47" height="165.95" transform="translate(-4.67 128.97) rotate(-50.68)"/>
              <rect class="cls-87" x="129.89" y="-10.88" width="3.47" height="165.95" transform="translate(-7.55 128.25) rotate(-50.68)"/>
              <rect class="cls-241" x="127.7" y="-8.2" width="3.47" height="165.95" transform="translate(-10.43 127.54) rotate(-50.68)"/>
              <rect class="cls-25" x="125.5" y="-5.51" width="3.47" height="165.95" transform="translate(-13.31 126.82) rotate(-50.68)"/>
              <rect class="cls-249" x="123.31" y="-2.83" width="3.47" height="165.95" transform="translate(-16.19 126.1) rotate(-50.68)"/>
              <rect class="cls-35" x="121.11" y="-.15" width="3.47" height="165.95" transform="translate(-19.07 125.39) rotate(-50.68)"/>
              <rect class="cls-50" x="118.91" y="2.53" width="3.47" height="165.95" transform="translate(-21.95 124.67) rotate(-50.68)"/>
              <rect class="cls-268" x="116.72" y="5.21" width="3.47" height="165.95" transform="translate(-24.83 123.95) rotate(-50.68)"/>
              <rect class="cls-52" x="114.52" y="7.89" width="3.47" height="165.95" transform="translate(-27.71 123.24) rotate(-50.68)"/>
              <rect class="cls-28" x="112.33" y="10.57" width="3.47" height="165.95" transform="translate(-30.58 122.52) rotate(-50.68)"/>
              <rect class="cls-217" x="110.13" y="13.25" width="3.47" height="165.95" transform="translate(-33.46 121.81) rotate(-50.68)"/>
              <rect class="cls-32" x="107.93" y="15.94" width="3.47" height="165.95" transform="translate(-36.34 121.09) rotate(-50.68)"/>
              <rect class="cls-190" x="105.74" y="18.62" width="3.47" height="165.95" transform="translate(-39.22 120.37) rotate(-50.68)"/>
              <polygon class="cls-346" points="170.57 155.51 168.56 157.97 168.1 157.97 39.98 53.04 42.18 50.36 170.57 155.51"/>
              <polygon class="cls-68" points="162.63 157.97 37.78 55.72 39.98 53.04 168.1 157.97 162.63 157.97"/>
              <polygon class="cls-288" points="157.16 157.97 35.59 58.41 37.78 55.72 162.63 157.97 157.16 157.97"/>
              <polygon class="cls-168" points="151.69 157.97 33.39 61.09 35.59 58.41 157.16 157.97 151.69 157.97"/>
              <polygon class="cls-313" points="146.22 157.97 31.2 63.77 33.39 61.09 151.69 157.97 146.22 157.97"/>
              <polygon class="cls-206" points="140.75 157.97 29 66.45 31.2 63.77 146.22 157.97 140.75 157.97"/>
              <polygon class="cls-54" points="135.28 157.97 26.81 69.13 29 66.45 140.75 157.97 135.28 157.97"/>
              <polygon class="cls-184" points="129.81 157.97 24.61 71.81 26.81 69.13 135.28 157.97 129.81 157.97"/>
              <polygon class="cls-281" points="124.34 157.97 22.41 74.49 24.61 71.81 129.81 157.97 124.34 157.97"/>
              <polygon class="cls-248" points="118.87 157.97 20.22 77.18 22.41 74.49 124.34 157.97 118.87 157.97"/>
              <polygon class="cls-191" points="113.4 157.97 18.02 79.86 20.22 77.18 118.87 157.97 113.4 157.97"/>
              <polygon class="cls-123" points="107.93 157.97 15.83 82.54 18.02 79.86 113.4 157.97 107.93 157.97"/>
              <polygon class="cls-294" points="102.46 157.97 13.63 85.22 15.83 82.54 107.93 157.97 102.46 157.97"/>
              <polygon class="cls-240" points="96.99 157.97 11.43 87.9 13.63 85.22 102.46 157.97 96.99 157.97"/>
              <polygon class="cls-139" points="91.52 157.97 9.24 90.58 11.43 87.9 96.99 157.97 91.52 157.97"/>
              <polygon class="cls-60" points="86.05 157.97 7.14 93.35 7.14 93.14 9.24 90.58 91.52 157.97 86.05 157.97"/>
              <polygon class="cls-359" points="80.58 157.97 7.14 97.83 7.14 93.35 86.05 157.97 80.58 157.97"/>
              <polygon class="cls-133" points="75.11 157.97 7.14 102.31 7.14 97.83 80.58 157.97 75.11 157.97"/>
              <polygon class="cls-299" points="69.64 157.97 7.14 106.79 7.14 102.31 75.11 157.97 69.64 157.97"/>
              <polygon class="cls-336" points="64.17 157.97 7.14 111.27 7.14 106.79 69.64 157.97 64.17 157.97"/>
              <polygon class="cls-218" points="58.7 157.97 7.14 115.74 7.14 111.27 64.17 157.97 58.7 157.97"/>
              <polygon class="cls-296" points="53.23 157.97 7.14 120.22 7.14 115.74 58.7 157.97 53.23 157.97"/>
              <polygon class="cls-104" points="47.76 157.97 7.14 124.7 7.14 120.22 53.23 157.97 47.76 157.97"/>
              <polygon class="cls-352" points="42.29 157.97 7.14 129.18 7.14 124.7 47.76 157.97 42.29 157.97"/>
              <polygon class="cls-352" points="7.14 129.18 42.29 157.97 7.14 157.97 7.14 129.18"/>
            </g>
          </g>
        </g>
      </g>
      <g>
        <path class="cls-115" d="M40.23,260.23l-.71,2.58c-11.38,3.97-20.08,10.44-26.11,19.41l-2.43.78c.33,20.09.61,40.09.84,60.02,2.36,18.58,14.67,25.08,32.35,29.73,63.21,16.63,155.62-2.73,207.38-42.34,24.05-18.4,43.35-44.1,45.66-75.17,1.72-23.19.66-53.25-3.16-76.11-1.11-6.64-3.89-14.75-8.08-19.8l-2.95-1c-13.95-20.24-38.73-31.45-62.89-32.72-4.76.47-9.15.16-13.19-.93-7.39,1.52-14.19,4.09-20.75,8.56-1.63,1.11-4.63-.46-5.06-1.68-3.04-8.55,37.06-30.45,85.81-5.3,22.65,11.69,37.03,32.27,39.39,58.01,2.2,23.99,3.08,47.5,1.4,71.59-1.59,22.68-9.81,43.27-24.09,60.8-50.11,61.53-151.39,78.95-227.25,69.38-23.83-3.01-54.52-14.37-55.03-39.94l-1.07-53.93c-.4-20.45,23.72-30.79,42.59-37.07.7,3.1-1.58,3.62-2.66,5.14Z"/>
        <path class="cls-102" d="M42.15,269.97l-.06,12.12-.39,13.57c-6.21-.64-11.43-2.73-15.83-6.1-3.85-2.94-3.94-8.04-.64-11.43,4.61-4.73,14.5-10.54,15.75-9.3l1.15,1.14Z"/>
        <path class="cls-196" d="M10.99,283c-.38,5.18,1.15,10.72,5.37,14.3-.8,15.46-.91,31.06-.33,46.79,1.64,13.29,11.26,18.6,23.22,22.79,51.18,17.94,133.9,2.74,180.22-21.17,37.98-19.6,73.71-51.25,73.86-96.81l-1.04-47.18-1.56-1.46c4.12-13.96,2.35-28.53-4.76-40.93,1.7.2,2.12,1.63,2.94,3.14,4.36,8.11,7.42,16.37,8.24,25.8,1.74,19.98,3.02,39.44,2.52,59.41-1.08,43.43-28.17,74.25-64.03,95.94-21.17,12.81-43.52,21.47-67.61,27.42-36.07,8.9-79.12,12.78-115.39,5.73-11.2-2.18-21.73-5.59-31.08-11.89-7.73-5.21-11.66-13.47-11.76-22.76l-.47-39.94c-.08-6.84-.31-13.13,1.65-19.18Z"/>
        <g class="cls-142">
          <polygon class="cls-95" points="22.32 198.21 13.58 334.68 13.58 198.21 22.32 198.21"/>
          <polygon class="cls-95" points="25.97 198.21 14.61 375.63 13.58 375.56 13.58 334.68 22.32 198.21 25.97 198.21"/>
          <polygon class="cls-58" points="29.63 198.21 18.24 375.86 14.61 375.63 25.97 198.21 29.63 198.21"/>
          <polygon class="cls-297" points="33.28 198.21 21.88 376.09 18.24 375.86 29.63 198.21 33.28 198.21"/>
          <polygon class="cls-235" points="36.93 198.21 25.52 376.33 21.88 376.09 33.28 198.21 36.93 198.21"/>
          <polygon class="cls-17" points="40.58 198.21 29.16 376.56 25.52 376.33 36.93 198.21 40.58 198.21"/>
          <polygon class="cls-10" points="44.24 198.21 32.79 376.79 29.16 376.56 40.58 198.21 44.24 198.21"/>
          <polygon class="cls-24" points="47.89 198.21 36.43 377.03 32.79 376.79 44.24 198.21 47.89 198.21"/>
          <polygon class="cls-223" points="51.54 198.21 40.07 377.26 36.43 377.03 47.89 198.21 51.54 198.21"/>
          <polygon class="cls-311" points="55.19 198.21 43.71 377.46 43.26 377.46 40.07 377.26 51.54 198.21 55.19 198.21"/>
          <polygon class="cls-353" points="58.85 198.21 47.36 377.46 43.71 377.46 55.19 198.21 58.85 198.21"/>
          <polygon class="cls-275" points="62.5 198.21 51.01 377.46 47.36 377.46 58.85 198.21 62.5 198.21"/>
          <polygon class="cls-304" points="66.15 198.21 54.67 377.46 51.01 377.46 62.5 198.21 66.15 198.21"/>
          <polygon class="cls-198" points="69.81 198.21 58.32 377.46 54.67 377.46 66.15 198.21 69.81 198.21"/>
          <polygon class="cls-159" points="73.46 198.21 61.97 377.46 58.32 377.46 69.81 198.21 73.46 198.21"/>
          <polygon class="cls-80" points="77.11 198.21 65.62 377.46 61.97 377.46 73.46 198.21 77.11 198.21"/>
          <polygon class="cls-265" points="80.76 198.21 69.28 377.46 65.62 377.46 77.11 198.21 80.76 198.21"/>
          <polygon class="cls-2" points="84.42 198.21 72.93 377.46 69.28 377.46 80.76 198.21 84.42 198.21"/>
          <polygon class="cls-8" points="88.07 198.21 76.58 377.46 72.93 377.46 84.42 198.21 88.07 198.21"/>
          <polygon class="cls-342" points="91.72 198.21 80.24 377.46 76.58 377.46 88.07 198.21 91.72 198.21"/>
          <polygon class="cls-165" points="95.37 198.21 83.89 377.46 80.24 377.46 91.72 198.21 95.37 198.21"/>
          <polygon class="cls-224" points="99.03 198.21 87.54 377.46 83.89 377.46 95.37 198.21 99.03 198.21"/>
          <polygon class="cls-12" points="102.68 198.21 91.19 377.46 87.54 377.46 99.03 198.21 102.68 198.21"/>
          <polygon class="cls-182" points="106.33 198.21 94.85 377.46 91.19 377.46 102.68 198.21 106.33 198.21"/>
          <polygon class="cls-360" points="109.98 198.21 98.5 377.46 94.85 377.46 106.33 198.21 109.98 198.21"/>
          <polygon class="cls-232" points="113.64 198.21 102.15 377.46 98.5 377.46 109.98 198.21 113.64 198.21"/>
          <polygon class="cls-308" points="117.29 198.21 105.8 377.46 102.15 377.46 113.64 198.21 117.29 198.21"/>
          <polygon class="cls-63" points="120.94 198.21 109.46 377.46 105.8 377.46 117.29 198.21 120.94 198.21"/>
          <polygon class="cls-203" points="124.59 198.21 113.11 377.46 109.46 377.46 120.94 198.21 124.59 198.21"/>
          <polygon class="cls-243" points="128.25 198.21 116.76 377.46 113.11 377.46 124.59 198.21 128.25 198.21"/>
          <polygon class="cls-103" points="131.9 198.21 120.41 377.46 116.76 377.46 128.25 198.21 131.9 198.21"/>
          <polygon class="cls-361" points="135.55 198.21 124.07 377.46 120.41 377.46 131.9 198.21 135.55 198.21"/>
          <polygon class="cls-361" points="139.17 198.21 127.69 377.46 124.07 377.46 135.55 198.21 139.17 198.21"/>
          <polygon class="cls-176" points="142.79 198.21 131.31 377.46 127.69 377.46 139.17 198.21 142.79 198.21"/>
          <polygon class="cls-243" points="146.42 198.21 134.93 377.46 131.31 377.46 142.79 198.21 146.42 198.21"/>
          <polygon class="cls-264" points="150.04 198.21 138.55 377.46 134.93 377.46 146.42 198.21 150.04 198.21"/>
          <polygon class="cls-63" points="153.66 198.21 142.17 377.46 138.55 377.46 150.04 198.21 153.66 198.21"/>
          <polygon class="cls-256" points="157.28 198.21 145.79 377.46 142.17 377.46 153.66 198.21 157.28 198.21"/>
          <polygon class="cls-273" points="160.9 198.21 149.41 377.46 145.79 377.46 157.28 198.21 160.9 198.21"/>
          <polygon class="cls-306" points="164.52 198.21 153.04 377.46 149.41 377.46 160.9 198.21 164.52 198.21"/>
          <polygon class="cls-362" points="168.14 198.21 156.66 377.46 153.04 377.46 164.52 198.21 168.14 198.21"/>
          <polygon class="cls-355" points="171.76 198.21 160.28 377.46 156.66 377.46 168.14 198.21 171.76 198.21"/>
          <polygon class="cls-7" points="175.38 198.21 163.9 377.46 160.28 377.46 171.76 198.21 175.38 198.21"/>
          <polygon class="cls-178" points="179.01 198.21 167.52 377.46 163.9 377.46 175.38 198.21 179.01 198.21"/>
          <polygon class="cls-36" points="182.63 198.21 171.14 377.46 167.52 377.46 179.01 198.21 182.63 198.21"/>
          <polygon class="cls-23" points="186.25 198.21 174.76 377.46 171.14 377.46 182.63 198.21 186.25 198.21"/>
          <polygon class="cls-26" points="189.87 198.21 178.38 377.46 174.76 377.46 186.25 198.21 189.87 198.21"/>
          <polygon class="cls-73" points="193.49 198.21 182 377.46 178.38 377.46 189.87 198.21 193.49 198.21"/>
          <polygon class="cls-160" points="197.11 198.21 185.62 377.46 182 377.46 193.49 198.21 197.11 198.21"/>
          <polygon class="cls-31" points="200.73 198.21 189.25 377.46 185.62 377.46 197.11 198.21 200.73 198.21"/>
          <polygon class="cls-110" points="204.35 198.21 192.87 377.46 189.25 377.46 200.73 198.21 204.35 198.21"/>
          <polygon class="cls-173" points="207.97 198.21 196.49 377.46 192.87 377.46 204.35 198.21 207.97 198.21"/>
          <polygon class="cls-266" points="211.59 198.21 200.11 377.46 196.49 377.46 207.97 198.21 211.59 198.21"/>
          <polygon class="cls-211" points="215.22 198.21 203.73 377.46 200.11 377.46 211.59 198.21 215.22 198.21"/>
          <polygon class="cls-298" points="218.84 198.21 207.35 377.46 203.73 377.46 215.22 198.21 218.84 198.21"/>
          <polygon class="cls-131" points="222.46 198.21 210.97 377.46 207.35 377.46 218.84 198.21 222.46 198.21"/>
          <polygon class="cls-85" points="226.08 198.21 214.59 377.46 210.97 377.46 222.46 198.21 226.08 198.21"/>
          <polygon class="cls-357" points="229.7 198.21 218.21 377.46 214.59 377.46 226.08 198.21 229.7 198.21"/>
          <polygon class="cls-188" points="233.32 198.21 221.83 377.46 218.21 377.46 229.7 198.21 233.32 198.21"/>
          <polygon class="cls-125" points="236.94 198.21 225.46 377.46 221.83 377.46 233.32 198.21 236.94 198.21"/>
          <polygon class="cls-157" points="240.56 198.21 229.08 377.46 225.46 377.46 236.94 198.21 240.56 198.21"/>
          <polygon class="cls-158" points="244.18 198.21 232.7 377.46 229.08 377.46 240.56 198.21 244.18 198.21"/>
          <polygon class="cls-81" points="247.81 198.21 236.32 377.46 232.7 377.46 244.18 198.21 247.81 198.21"/>
          <polygon class="cls-292" points="251.43 198.21 239.94 377.46 236.32 377.46 247.81 198.21 251.43 198.21"/>
          <polygon class="cls-280" points="255.05 198.21 243.56 377.46 239.94 377.46 251.43 198.21 255.05 198.21"/>
          <polygon class="cls-339" points="258.67 198.21 247.18 377.46 243.56 377.46 255.05 198.21 258.67 198.21"/>
          <polygon class="cls-261" points="262.29 198.21 250.8 377.46 247.18 377.46 258.67 198.21 262.29 198.21"/>
          <polygon class="cls-194" points="265.91 198.21 254.42 377.46 250.8 377.46 262.29 198.21 265.91 198.21"/>
          <polygon class="cls-316" points="269.53 198.21 258.05 377.46 254.42 377.46 265.91 198.21 269.53 198.21"/>
          <polygon class="cls-326" points="273.15 198.21 261.67 377.46 258.05 377.46 269.53 198.21 273.15 198.21"/>
          <polygon class="cls-181" points="276.77 198.21 265.29 377.46 261.67 377.46 273.15 198.21 276.77 198.21"/>
          <polygon class="cls-114" points="280.39 198.21 268.91 377.46 265.29 377.46 276.77 198.21 280.39 198.21"/>
          <polygon class="cls-132" points="284.02 198.21 272.53 377.46 268.91 377.46 280.39 198.21 284.02 198.21"/>
          <polygon class="cls-187" points="287.64 198.21 276.15 377.46 272.53 377.46 284.02 198.21 287.64 198.21"/>
          <polygon class="cls-215" points="291.26 198.21 279.77 377.46 276.15 377.46 287.64 198.21 291.26 198.21"/>
          <polygon class="cls-239" points="294.88 198.21 283.39 377.46 279.77 377.46 291.26 198.21 294.88 198.21"/>
          <polygon class="cls-239" points="283.39 377.46 294.88 198.21 296.01 198.21 296.01 377.46 283.39 377.46"/>
        </g>
        <g>
          <path class="cls-65" d="M214.57,134.44c19.37-.04,37.84,6.32,51.95,19.27,12.73,11.69,17.09,28.31,11.98,44.74-7.46,24-32.41,45.05-54.17,57.82-19.97,11.73-40.62,20.14-62.66,27.37-1.88.62-7,1.04-7.04-1.76l-1.46-99.64c-.07-4.71.42-8.08,5.12-10.24,11.06-5.06,23.45-7.02,35.76-5.71,2.61.28,4.12,2.32,4.15,4.95l.94,86.83c.02,1.9,4.7.87,5.39-.3.88-1.48,1.77-3.15,1.77-5.7l.07-112.74c0-3.59,5.46-4.9,8.19-4.91Z"/>
          <g class="cls-309">
            <polygon class="cls-201" points="224.28 136.96 210.45 141.93 210.45 136.96 224.28 136.96"/>
            <polygon class="cls-201" points="229.18 136.96 210.45 143.69 210.45 141.93 224.28 136.96 229.18 136.96"/>
            <polygon class="cls-327" points="234.07 136.96 210.45 145.45 210.45 143.69 229.18 136.96 234.07 136.96"/>
            <polygon class="cls-5" points="238.97 136.96 210.45 147.21 210.45 145.45 234.07 136.96 238.97 136.96"/>
            <polygon class="cls-259" points="243.86 136.96 210.45 148.97 210.45 147.21 238.97 136.96 243.86 136.96"/>
            <polygon class="cls-69" points="245.3 138.2 210.45 150.72 210.45 148.97 243.86 136.96 245.3 136.96 245.3 138.2"/>
            <polygon class="cls-100" points="245.3 139.96 210.45 152.48 210.45 150.72 245.3 138.2 245.3 139.96"/>
            <polygon class="cls-128" points="245.3 141.72 210.45 154.24 210.45 152.48 245.3 139.96 245.3 141.72"/>
            <polygon class="cls-225" points="245.3 143.47 210.45 156 210.45 154.24 245.3 141.72 245.3 143.47"/>
            <polygon class="cls-140" points="245.3 145.23 210.45 157.76 210.45 156 245.3 143.47 245.3 145.23"/>
            <polygon class="cls-246" points="245.3 146.99 210.45 159.52 210.45 157.76 245.3 145.23 245.3 146.99"/>
            <polygon class="cls-214" points="245.3 148.75 210.45 161.28 210.45 159.52 245.3 146.99 245.3 148.75"/>
            <polygon class="cls-216" points="245.3 150.51 210.45 163.04 210.45 161.28 245.3 148.75 245.3 150.51"/>
            <polygon class="cls-247" points="245.3 152.27 210.45 164.8 210.45 163.04 245.3 150.51 245.3 152.27"/>
            <polygon class="cls-283" points="245.3 154.03 210.45 166.56 210.45 164.8 245.3 152.27 245.3 154.03"/>
            <polygon class="cls-9" points="245.3 155.79 210.45 168.32 210.45 166.56 245.3 154.03 245.3 155.79"/>
            <polygon class="cls-113" points="245.3 157.55 210.45 170.08 210.45 168.32 245.3 155.79 245.3 157.55"/>
            <polygon class="cls-112" points="245.3 159.31 210.45 171.84 210.45 170.08 245.3 157.55 245.3 159.31"/>
            <polygon class="cls-137" points="245.3 161.07 210.45 173.6 210.45 171.84 245.3 159.31 245.3 161.07"/>
            <polygon class="cls-44" points="245.3 162.83 210.45 175.36 210.45 173.6 245.3 161.07 245.3 162.83"/>
            <polygon class="cls-195" points="245.3 164.59 210.45 177.12 210.45 175.36 245.3 162.83 245.3 164.59"/>
            <polygon class="cls-3" points="245.3 166.35 210.45 178.88 210.45 177.12 245.3 164.59 245.3 166.35"/>
            <polygon class="cls-67" points="245.3 168.11 210.45 180.64 210.45 178.88 245.3 166.35 245.3 168.11"/>
            <polygon class="cls-134" points="245.3 169.87 210.45 182.4 210.45 180.64 245.3 168.11 245.3 169.87"/>
            <polygon class="cls-107" points="245.3 171.63 210.45 184.16 210.45 182.4 245.3 169.87 245.3 171.63"/>
            <polygon class="cls-271" points="245.3 173.39 210.45 185.91 210.45 184.16 245.3 171.63 245.3 173.39"/>
            <polygon class="cls-348" points="245.3 175.15 210.45 187.67 210.45 185.91 245.3 173.39 245.3 175.15"/>
            <polygon class="cls-199" points="245.3 176.9 210.45 189.43 210.45 187.67 245.3 175.15 245.3 176.9"/>
            <polygon class="cls-96" points="245.3 178.66 210.45 191.19 210.45 189.43 245.3 176.9 245.3 178.66"/>
            <polygon class="cls-94" points="245.3 180.42 210.45 192.95 210.45 191.19 245.3 178.66 245.3 180.42"/>
            <polygon class="cls-180" points="245.3 182.18 210.45 194.71 210.45 192.95 245.3 180.42 245.3 182.18"/>
            <polygon class="cls-155" points="245.3 183.94 210.45 196.47 210.45 194.71 245.3 182.18 245.3 183.94"/>
            <polygon class="cls-330" points="245.3 185.7 210.45 198.23 210.45 196.47 245.3 183.94 245.3 185.7"/>
            <polygon class="cls-286" points="245.3 187.46 210.45 199.99 210.45 198.23 245.3 185.7 245.3 187.46"/>
            <polygon class="cls-166" points="245.3 189.22 210.45 201.75 210.45 199.99 245.3 187.46 245.3 189.22"/>
            <polygon class="cls-189" points="245.3 190.98 210.45 203.51 210.45 201.75 245.3 189.22 245.3 190.98"/>
            <polygon class="cls-33" points="245.3 192.74 210.45 205.27 210.45 203.51 245.3 190.98 245.3 192.74"/>
            <polygon class="cls-55" points="245.3 194.5 210.45 207.03 210.45 205.27 245.3 192.74 245.3 194.5"/>
            <polygon class="cls-22" points="245.3 196.26 210.45 208.79 210.45 207.03 245.3 194.5 245.3 196.26"/>
            <polygon class="cls-97" points="245.3 198.02 210.45 210.55 210.45 208.79 245.3 196.26 245.3 198.02"/>
            <polygon class="cls-86" points="245.3 199.78 210.45 212.31 210.45 210.55 245.3 198.02 245.3 199.78"/>
            <polygon class="cls-254" points="245.3 201.54 210.45 214.07 210.45 212.31 245.3 199.78 245.3 201.54"/>
            <polygon class="cls-307" points="245.3 203.3 210.45 215.83 210.45 214.07 245.3 201.54 245.3 203.3"/>
            <polygon class="cls-101" points="245.3 205.06 210.45 217.59 210.45 215.83 245.3 203.3 245.3 205.06"/>
            <polygon class="cls-221" points="245.3 206.82 210.45 219.34 210.45 217.59 245.3 205.06 245.3 206.82"/>
            <polygon class="cls-72" points="245.3 208.58 210.45 221.1 210.45 219.34 245.3 206.82 245.3 208.58"/>
            <polygon class="cls-291" points="245.3 210.34 210.45 222.86 210.45 221.1 245.3 208.58 245.3 210.34"/>
            <polygon class="cls-207" points="245.3 212.09 210.45 224.62 210.45 222.86 245.3 210.34 245.3 212.09"/>
            <polygon class="cls-329" points="245.3 213.85 210.45 226.38 210.45 224.62 245.3 212.09 245.3 213.85"/>
            <polygon class="cls-71" points="245.3 215.61 210.45 228.14 210.45 226.38 245.3 213.85 245.3 215.61"/>
            <polygon class="cls-186" points="245.3 217.37 210.45 229.9 210.45 228.14 245.3 215.61 245.3 217.37"/>
            <polygon class="cls-244" points="245.3 219.13 210.45 231.66 210.45 229.9 245.3 217.37 245.3 219.13"/>
            <polygon class="cls-349" points="245.3 220.89 210.45 233.42 210.45 231.66 245.3 219.13 245.3 220.89"/>
            <polygon class="cls-75" points="245.3 222.65 210.45 235.18 210.45 233.42 245.3 220.89 245.3 222.65"/>
            <polygon class="cls-146" points="245.3 224.41 210.45 236.94 210.45 235.18 245.3 222.65 245.3 224.41"/>
            <polygon class="cls-148" points="245.3 226.17 210.45 238.7 210.45 236.94 245.3 224.41 245.3 226.17"/>
            <polygon class="cls-323" points="245.3 227.93 210.45 240.46 210.45 238.7 245.3 226.17 245.3 227.93"/>
            <polygon class="cls-51" points="245.3 229.69 210.45 242.22 210.45 240.46 245.3 227.93 245.3 229.69"/>
            <polygon class="cls-200" points="245.3 231.45 210.45 243.98 210.45 242.22 245.3 229.69 245.3 231.45"/>
            <polygon class="cls-34" points="245.3 233.21 210.45 245.74 210.45 243.98 245.3 231.45 245.3 233.21"/>
            <polygon class="cls-64" points="245.3 234.97 210.45 247.5 210.45 245.74 245.3 233.21 245.3 234.97"/>
            <polygon class="cls-328" points="245.3 236.73 210.45 249.26 210.45 247.5 245.3 234.97 245.3 236.73"/>
            <polygon class="cls-328" points="210.45 249.26 245.3 236.73 245.3 251.9 210.45 251.9 210.45 249.26"/>
          </g>
          <g class="cls-209">
            <polygon class="cls-79" points="193.38 172.53 159.74 172.1 159.74 168.02 193.38 168.02 193.38 172.53"/>
            <polygon class="cls-79" points="193.38 173.88 159.74 173.44 159.74 172.1 193.38 172.53 193.38 173.88"/>
            <polygon class="cls-332" points="193.38 175.22 159.74 174.78 159.74 173.44 193.38 173.88 193.38 175.22"/>
            <polygon class="cls-163" points="193.38 176.56 159.74 176.12 159.74 174.78 193.38 175.22 193.38 176.56"/>
            <polygon class="cls-174" points="193.38 177.9 159.74 177.47 159.74 176.12 193.38 176.56 193.38 177.9"/>
            <polygon class="cls-310" points="193.38 179.25 159.74 178.81 159.74 177.47 193.38 177.9 193.38 179.25"/>
            <polygon class="cls-120" points="193.38 180.59 159.74 180.15 159.74 178.81 193.38 179.25 193.38 180.59"/>
            <polygon class="cls-220" points="193.38 181.93 159.74 181.5 159.74 180.15 193.38 180.59 193.38 181.93"/>
            <polygon class="cls-295" points="193.38 183.27 159.74 182.84 159.74 181.5 193.38 181.93 193.38 183.27"/>
            <polygon class="cls-277" points="193.38 184.62 159.74 184.18 159.74 182.84 193.38 183.27 193.38 184.62"/>
            <polygon class="cls-143" points="193.38 185.96 159.74 185.52 159.74 184.18 193.38 184.62 193.38 185.96"/>
            <polygon class="cls-4" points="193.38 187.3 159.74 186.87 159.74 185.52 193.38 185.96 193.38 187.3"/>
            <polygon class="cls-340" points="193.38 188.64 159.74 188.21 159.74 186.87 193.38 187.3 193.38 188.64"/>
            <polygon class="cls-14" points="193.38 189.99 159.74 189.55 159.74 188.21 193.38 188.64 193.38 189.99"/>
            <polygon class="cls-197" points="193.38 191.33 159.74 190.89 159.74 189.55 193.38 189.99 193.38 191.33"/>
            <polygon class="cls-300" points="193.38 192.67 159.74 192.24 159.74 190.89 193.38 191.33 193.38 192.67"/>
            <polygon class="cls-39" points="193.38 194.01 159.74 193.58 159.74 192.24 193.38 192.67 193.38 194.01"/>
            <polygon class="cls-118" points="193.38 195.36 159.74 194.92 159.74 193.58 193.38 194.01 193.38 195.36"/>
            <polygon class="cls-341" points="193.38 196.7 159.74 196.26 159.74 194.92 193.38 195.36 193.38 196.7"/>
            <polygon class="cls-84" points="193.38 198.04 159.74 197.61 159.74 196.26 193.38 196.7 193.38 198.04"/>
            <polygon class="cls-319" points="193.38 199.38 159.74 198.95 159.74 197.61 193.38 198.04 193.38 199.38"/>
            <polygon class="cls-21" points="193.38 200.73 159.74 200.29 159.74 198.95 193.38 199.38 193.38 200.73"/>
            <polygon class="cls-324" points="193.38 202.07 159.74 201.63 159.74 200.29 193.38 200.73 193.38 202.07"/>
            <polygon class="cls-238" points="193.38 203.41 159.74 202.98 159.74 201.63 193.38 202.07 193.38 203.41"/>
            <polygon class="cls-141" points="193.38 204.76 159.74 204.32 159.74 202.98 193.38 203.41 193.38 204.76"/>
            <polygon class="cls-267" points="193.38 206.1 159.74 205.66 159.74 204.32 193.38 204.76 193.38 206.1"/>
            <polygon class="cls-354" points="193.38 207.44 159.74 207 159.74 205.66 193.38 206.1 193.38 207.44"/>
            <polygon class="cls-272" points="193.38 208.78 159.74 208.35 159.74 207 193.38 207.44 193.38 208.78"/>
            <polygon class="cls-270" points="193.38 210.13 159.74 209.69 159.74 208.35 193.38 208.78 193.38 210.13"/>
            <polygon class="cls-202" points="193.38 211.47 159.74 211.03 159.74 209.69 193.38 210.13 193.38 211.47"/>
            <polygon class="cls-59" points="193.38 212.81 159.74 212.37 159.74 211.03 193.38 211.47 193.38 212.81"/>
            <polygon class="cls-314" points="193.38 214.15 159.74 213.72 159.74 212.37 193.38 212.81 193.38 214.15"/>
            <polygon class="cls-212" points="193.38 215.5 159.74 215.06 159.74 213.72 193.38 214.15 193.38 215.5"/>
            <polygon class="cls-56" points="193.38 216.84 159.74 216.4 159.74 215.06 193.38 215.5 193.38 216.84"/>
            <polygon class="cls-18" points="193.38 218.18 159.74 217.74 159.74 216.4 193.38 216.84 193.38 218.18"/>
            <polygon class="cls-66" points="193.38 219.52 159.74 219.09 159.74 217.74 193.38 218.18 193.38 219.52"/>
            <polygon class="cls-6" points="193.38 220.87 159.74 220.43 159.74 219.09 193.38 219.52 193.38 220.87"/>
            <polygon class="cls-305" points="193.38 222.21 159.74 221.77 159.74 220.43 193.38 220.87 193.38 222.21"/>
            <polygon class="cls-19" points="193.38 223.55 159.74 223.12 159.74 221.77 193.38 222.21 193.38 223.55"/>
            <polygon class="cls-152" points="193.38 224.89 159.74 224.46 159.74 223.12 193.38 223.55 193.38 224.89"/>
            <polygon class="cls-175" points="193.38 226.24 159.74 225.8 159.74 224.46 193.38 224.89 193.38 226.24"/>
            <polygon class="cls-204" points="193.38 227.58 159.74 227.14 159.74 225.8 193.38 226.24 193.38 227.58"/>
            <polygon class="cls-350" points="193.38 228.92 159.74 228.49 159.74 227.14 193.38 227.58 193.38 228.92"/>
            <polygon class="cls-321" points="193.38 230.26 159.74 229.83 159.74 228.49 193.38 228.92 193.38 230.26"/>
            <polygon class="cls-289" points="193.38 231.61 159.74 231.17 159.74 229.83 193.38 230.26 193.38 231.61"/>
            <polygon class="cls-231" points="193.38 232.95 159.74 232.51 159.74 231.17 193.38 231.61 193.38 232.95"/>
            <polygon class="cls-210" points="193.38 234.29 159.74 233.86 159.74 232.51 193.38 232.95 193.38 234.29"/>
            <polygon class="cls-356" points="193.38 235.63 159.74 235.2 159.74 233.86 193.38 234.29 193.38 235.63"/>
            <polygon class="cls-147" points="193.38 236.98 159.74 236.54 159.74 235.2 193.38 235.63 193.38 236.98"/>
            <polygon class="cls-285" points="193.38 238.32 159.74 237.88 159.74 236.54 193.38 236.98 193.38 238.32"/>
            <polygon class="cls-98" points="193.38 239.66 159.74 239.23 159.74 237.88 193.38 238.32 193.38 239.66"/>
            <polygon class="cls-177" points="193.38 241 159.74 240.57 159.74 239.23 193.38 239.66 193.38 241"/>
            <polygon class="cls-337" points="193.38 242.35 159.74 241.91 159.74 240.57 193.38 241 193.38 242.35"/>
            <polygon class="cls-126" points="193.38 243.69 159.74 243.25 159.74 241.91 193.38 242.35 193.38 243.69"/>
            <polygon class="cls-162" points="193.38 245.03 159.74 244.6 159.74 243.25 193.38 243.69 193.38 245.03"/>
            <polygon class="cls-156" points="193.38 246.38 159.74 245.94 159.74 244.6 193.38 245.03 193.38 246.38"/>
            <polygon class="cls-343" points="193.38 247.72 159.74 247.28 159.74 245.94 193.38 246.38 193.38 247.72"/>
            <polygon class="cls-312" points="193.38 249.06 159.74 248.62 159.74 247.28 193.38 247.72 193.38 249.06"/>
            <polygon class="cls-47" points="193.38 250.4 159.74 249.97 159.74 248.62 193.38 249.06 193.38 250.4"/>
            <polygon class="cls-122" points="193.38 251.75 159.74 251.31 159.74 249.97 193.38 250.4 193.38 251.75"/>
            <polygon class="cls-183" points="193.38 253.09 159.74 252.65 159.74 251.31 193.38 251.75 193.38 253.09"/>
            <polygon class="cls-255" points="193.38 254.43 159.74 253.99 159.74 252.65 193.38 253.09 193.38 254.43"/>
            <polygon class="cls-76" points="193.38 255.77 159.74 255.34 159.74 253.99 193.38 254.43 193.38 255.77"/>
            <polygon class="cls-150" points="193.38 257.12 159.74 256.68 159.74 255.34 193.38 255.77 193.38 257.12"/>
            <polygon class="cls-322" points="193.38 258.46 159.74 258.02 159.74 256.68 193.38 257.12 193.38 258.46"/>
            <polygon class="cls-170" points="193.38 259.8 159.74 259.36 159.74 258.02 193.38 258.46 193.38 259.8"/>
            <polygon class="cls-151" points="193.38 261.14 159.74 260.71 159.74 259.36 193.38 259.8 193.38 261.14"/>
            <polygon class="cls-48" points="193.38 262.49 159.74 262.05 159.74 260.71 193.38 261.14 193.38 262.49"/>
            <polygon class="cls-278" points="193.38 263.83 159.74 263.39 159.74 262.05 193.38 262.49 193.38 263.83"/>
            <polygon class="cls-234" points="193.38 265.17 159.74 264.74 159.74 263.39 193.38 263.83 193.38 265.17"/>
            <polygon class="cls-105" points="193.38 266.51 159.74 266.08 159.74 264.74 193.38 265.17 193.38 266.51"/>
            <polygon class="cls-193" points="193.38 267.86 159.74 267.42 159.74 266.08 193.38 266.51 193.38 267.86"/>
            <polygon class="cls-258" points="193.38 269.2 159.74 268.76 159.74 267.42 193.38 267.86 193.38 269.2"/>
            <polygon class="cls-111" points="193.38 270.54 159.74 270.11 159.74 268.76 193.38 269.2 193.38 270.54"/>
            <polygon class="cls-111" points="159.74 270.11 193.38 270.54 193.38 274.37 159.74 274.37 159.74 270.11"/>
          </g>
        </g>
        <g>
          <path class="cls-293" d="M147.15,277.58c.12,4.85.7,10.3-5.24,11.37l-35.55,6.41c-3.6.65-5-2.41-5.02-5.15l-.48-59.52-.55-28.56c-.06-3.28,3.9-5.9,6.93-5.98l31.01-.88c2.4-.07,4.33.61,5.58,1.81,1.74,1.67,1.42,3.62,1.48,6.13l1.84,74.38Z"/>
          <g class="cls-38">
            <polygon class="cls-167" points="141.58 201 120.54 198.96 141.58 198.96 141.58 201"/>
            <polygon class="cls-167" points="141.58 202.73 106.24 199.32 106.24 198.96 120.54 198.96 141.58 201 141.58 202.73"/>
            <polygon class="cls-106" points="141.58 204.47 106.24 201.06 106.24 199.32 141.58 202.73 141.58 204.47"/>
            <polygon class="cls-164" points="141.58 206.21 106.24 202.79 106.24 201.06 141.58 204.47 141.58 206.21"/>
            <polygon class="cls-335" points="141.58 207.94 106.24 204.53 106.24 202.79 141.58 206.21 141.58 207.94"/>
            <polygon class="cls-237" points="141.58 209.68 106.24 206.27 106.24 204.53 141.58 207.94 141.58 209.68"/>
            <polygon class="cls-317" points="141.58 211.42 106.24 208.01 106.24 206.27 141.58 209.68 141.58 211.42"/>
            <polygon class="cls-250" points="141.58 213.16 106.24 209.74 106.24 208.01 141.58 211.42 141.58 213.16"/>
            <polygon class="cls-192" points="141.58 214.89 106.24 211.48 106.24 209.74 141.58 213.16 141.58 214.89"/>
            <polygon class="cls-74" points="141.58 216.63 106.24 213.22 106.24 211.48 141.58 214.89 141.58 216.63"/>
            <polygon class="cls-78" points="141.58 218.37 106.24 214.96 106.24 213.22 141.58 216.63 141.58 218.37"/>
            <polygon class="cls-49" points="141.58 220.11 106.24 216.69 106.24 214.96 141.58 218.37 141.58 220.11"/>
            <polygon class="cls-171" points="141.58 221.84 106.24 218.43 106.24 216.69 141.58 220.11 141.58 221.84"/>
            <polygon class="cls-121" points="141.58 223.58 106.24 220.17 106.24 218.43 141.58 221.84 141.58 223.58"/>
            <polygon class="cls-287" points="141.58 225.32 106.24 221.9 106.24 220.17 141.58 223.58 141.58 225.32"/>
            <polygon class="cls-279" points="141.58 227.05 106.24 223.64 106.24 221.9 141.58 225.32 141.58 227.05"/>
            <polygon class="cls-242" points="141.58 228.79 106.24 225.38 106.24 223.64 141.58 227.05 141.58 228.79"/>
            <polygon class="cls-88" points="141.58 230.53 106.24 227.12 106.24 225.38 141.58 228.79 141.58 230.53"/>
            <polygon class="cls-77" points="141.58 232.27 106.24 228.85 106.24 227.12 141.58 230.53 141.58 232.27"/>
            <polygon class="cls-172" points="141.58 234 106.24 230.59 106.24 228.85 141.58 232.27 141.58 234"/>
            <polygon class="cls-138" points="141.58 235.74 106.24 232.33 106.24 230.59 141.58 234 141.58 235.74"/>
            <polygon class="cls-145" points="141.58 237.48 106.24 234.06 106.24 232.33 141.58 235.74 141.58 237.48"/>
            <polygon class="cls-93" points="141.58 239.21 106.24 235.8 106.24 234.06 141.58 237.48 141.58 239.21"/>
            <polygon class="cls-325" points="141.58 240.95 106.24 237.54 106.24 235.8 141.58 239.21 141.58 240.95"/>
            <polygon class="cls-29" points="141.58 242.69 106.24 239.28 106.24 237.54 141.58 240.95 141.58 242.69"/>
            <polygon class="cls-245" points="141.58 244.43 106.24 241.01 106.24 239.28 141.58 242.69 141.58 244.43"/>
            <polygon class="cls-345" points="141.58 246.16 106.24 242.75 106.24 241.01 141.58 244.43 141.58 246.16"/>
            <polygon class="cls-179" points="141.58 247.9 106.24 244.49 106.24 242.75 141.58 246.16 141.58 247.9"/>
            <polygon class="cls-42" points="141.58 249.64 106.24 246.22 106.24 244.49 141.58 247.9 141.58 249.64"/>
            <polygon class="cls-263" points="141.58 251.38 106.24 247.96 106.24 246.22 141.58 249.64 141.58 251.38"/>
            <polygon class="cls-61" points="141.58 253.11 106.24 249.7 106.24 247.96 141.58 251.38 141.58 253.11"/>
            <polygon class="cls-62" points="141.58 254.85 106.24 251.44 106.24 249.7 141.58 253.11 141.58 254.85"/>
            <polygon class="cls-333" points="141.58 256.59 106.24 253.17 106.24 251.44 141.58 254.85 141.58 256.59"/>
            <polygon class="cls-351" points="141.58 258.32 106.24 254.91 106.24 253.17 141.58 256.59 141.58 258.32"/>
            <polygon class="cls-274" points="141.58 260.06 106.24 256.65 106.24 254.91 141.58 258.32 141.58 260.06"/>
            <polygon class="cls-99" points="141.58 261.8 106.24 258.39 106.24 256.65 141.58 260.06 141.58 261.8"/>
            <polygon class="cls-303" points="141.58 263.54 106.24 260.12 106.24 258.39 141.58 261.8 141.58 263.54"/>
            <polygon class="cls-358" points="141.58 265.27 106.24 261.86 106.24 260.12 141.58 263.54 141.58 265.27"/>
            <polygon class="cls-70" points="141.58 267.01 106.24 263.6 106.24 261.86 141.58 265.27 141.58 267.01"/>
            <polygon class="cls-251" points="141.58 268.75 106.24 265.33 106.24 263.6 141.58 267.01 141.58 268.75"/>
            <polygon class="cls-154" points="141.58 270.48 106.24 267.07 106.24 265.33 141.58 268.75 141.58 270.48"/>
            <polygon class="cls-149" points="141.58 272.22 106.24 268.81 106.24 267.07 141.58 270.48 141.58 272.22"/>
            <polygon class="cls-208" points="141.58 273.96 106.24 270.55 106.24 268.81 141.58 272.22 141.58 273.96"/>
            <polygon class="cls-161" points="141.58 275.7 106.24 272.28 106.24 270.55 141.58 273.96 141.58 275.7"/>
            <polygon class="cls-117" points="141.58 277.43 106.24 274.02 106.24 272.28 141.58 275.7 141.58 277.43"/>
            <polygon class="cls-15" points="141.58 279.17 106.24 275.76 106.24 274.02 141.58 277.43 141.58 279.17"/>
            <polygon class="cls-11" points="141.58 280.91 106.24 277.49 106.24 275.76 141.58 279.17 141.58 280.91"/>
            <polygon class="cls-92" points="141.58 282.64 106.24 279.23 106.24 277.49 141.58 280.91 141.58 282.64"/>
            <polygon class="cls-13" points="141.58 284.38 106.24 280.97 106.24 279.23 141.58 282.64 141.58 284.38"/>
            <polygon class="cls-13" points="106.24 280.97 141.58 284.38 141.58 286.43 106.24 286.43 106.24 280.97"/>
          </g>
        </g>
        <g>
          <path class="cls-253" d="M93.06,278.37l.3,13.86c.06,2.56-1.49,4.81-4.2,5.09-12.34,1.26-24.4.87-36.78.06-2.03-.69-3.21-2.09-3.21-4.24l.09-61.07c1.59-2.12,3.36-3.7,6.02-3.79l31.92-1.05c2.55-.08,4.96,2.38,5.01,4.93l.86,46.21Z"/>
          <path class="cls-27" d="M85.45,289.75l-27.09.25c-1.94.02-3.2-1.97-3.23-3.84l-.87-48.04c-.05-2.94.7-6.58,4.18-6.67l24.81-.64c1.86-.05,3.85,1.57,3.88,3.47l.96,52.74c.02,1.21-1.1,2.71-2.63,2.73Z"/>
        </g>
      </g>
      <g>
        <path class="cls-136" d="M625.4,284.03c-.19,10.09,1.3,18.8-8.29,23.7-5.87,3-13.39,2.49-17.62-2.77,2.18-6.98,13.39-6.2,12.18-18.99-10.95-1.02-20.8-4.39-28.87-11.54-12.52-11.11-16.18-28.62-10.23-44.88,5.18-14.16,19.11-24.24,35.46-25.78,14.61-1.38,28.99,3.8,37.49,15.87l-14.07,12.59c-8.11-9.72-21.45-11.55-30.96-4.16s-11.21,21.6-2.88,30.6c9.62,10.39,25.09,9.34,34.39-1.33l14.02,11.67c-5.14,7.5-11.8,12.28-20.62,15.04Z"/>
        <path class="cls-331" d="M452.95,283.96l-22.51.05.12-78.6,21.74-.07,1.13,11.14c5.03-8.34,13.46-13.43,23.42-12.88l.12,21.49c-6.6-.74-13.3-.06-18.53,4.35-3.51,2.96-5.25,7.97-5.28,12.72l-.22,41.8Z"/>
        <path class="cls-318" d="M407.08,183.25c-6.86-4.09-14.63-6.31-22.87-6.34l-40.34-.15v107.33s22.64.02,22.64.02l.18-34.59,23.71-.69c17.83-2.39,29.53-15.24,31.1-32.71,1.17-13.08-3.4-25.36-14.41-32.88ZM384.4,228.89l-17.73.34.18-32.25,15.33.09c9.11.05,15.74,6.18,16.29,14.62.54,8.41-4.66,15.82-14.07,17.21Z"/>
        <path class="cls-222" d="M691.27,202.56c-23.28,0-42.15,18.87-42.15,42.15s18.87,42.15,42.15,42.15,42.15-18.87,42.15-42.15-18.87-42.15-42.15-42.15ZM691.26,265.43c-11.47,0-20.77-9.3-20.77-20.77s9.3-20.77,20.77-20.77,20.77,9.3,20.77,20.77-9.3,20.77-20.77,20.77Z"/>
        <path class="cls-136" d="M552.75,216.55c-12.82-14.69-34.42-16.73-51.28-7.03-11.34,6.53-17.8,18.53-19.15,31.55-2.18,21.02,11.04,39.1,31.55,43.52,15.46,3.34,34.95-.38,45.87-12.88l-12.68-11.67c-6.85,6.23-14.29,9.41-22.82,9.17-10.18-.72-18.51-7.68-19.82-18.03l57.16-.11c1.47-12.12-.43-24.92-8.82-34.53ZM504.45,237.27c1.39-9.96,8.56-17.15,17.68-17.67,9.62-.55,18.52,6.18,19.26,17.47l-36.94.2Z"/>
      </g>
    </g>
  </g>
</svg>