<?xml version="1.0" encoding="UTF-8"?>
<svg id="Layer_2" data-name="Layer 2" xmlns="http://www.w3.org/2000/svg" xmlns:xlink="http://www.w3.org/1999/xlink" viewBox="0 0 224.85 274.1">
  <defs>
    <style>
      .cls-1 {
        fill: #c34908;
      }

      .cls-2 {
        fill: url(#linear-gradient-2);
      }

      .cls-3 {
        fill: #fa9223;
      }

      .cls-4 {
        fill: #3f0902;
      }

      .cls-5 {
        fill: #f38537;
      }

      .cls-6 {
        fill: #f0dfc6;
      }

      .cls-7 {
        fill: #eb7026;
      }

      .cls-8 {
        fill: #fb812a;
      }

      .cls-9 {
        fill: #f9ecd5;
      }

      .cls-10 {
        fill: url(#linear-gradient-3);
      }

      .cls-11 {
        fill: #2f0903;
      }

      .cls-12 {
        fill: #5a0d00;
      }

      .cls-13 {
        fill: #f76e29;
      }

      .cls-14 {
        fill: #e28238;
      }

      .cls-15 {
        fill: #fb5f7f;
      }

      .cls-16 {
        fill: #fca325;
      }

      .cls-17 {
        fill: #2e0c06;
      }

      .cls-18 {
        fill: #f27a27;
      }

      .cls-19 {
        fill: #32924f;
      }

      .cls-20 {
        fill: #340906;
      }

      .cls-21 {
        fill: #3f0a03;
      }

      .cls-22 {
        fill: url(#linear-gradient);
      }

      .cls-23 {
        fill: #f3aa63;
      }

      .cls-24 {
        fill: #410c03;
      }

      .cls-25 {
        fill: #fad8a6;
      }

      .cls-26 {
        fill: #f67728;
      }
    </style>
    <linearGradient id="linear-gradient" x1="162.41" y1="-15.1" x2="32.15" y2="109.13" gradientUnits="userSpaceOnUse">
      <stop offset="0" stop-color="#d34b0b"/>
      <stop offset="1" stop-color="#710"/>
    </linearGradient>
    <linearGradient id="linear-gradient-2" x1="13.59" y1="197.85" x2="209.57" y2="200.76" gradientUnits="userSpaceOnUse">
      <stop offset="0" stop-color="#801500"/>
      <stop offset=".46" stop-color="#a82a01"/>
      <stop offset="1" stop-color="#751300"/>
    </linearGradient>
    <linearGradient id="linear-gradient-3" x1="183.37" y1="116.83" x2="137.94" y2="149.57" gradientUnits="userSpaceOnUse">
      <stop offset="0" stop-color="#48b453"/>
      <stop offset="1" stop-color="#2e9551"/>
    </linearGradient>
  </defs>
  <g id="Layer_1-2" data-name="Layer 1">
    <g>
      <g>
        <path class="cls-21" d="M85.45,76.14c-13.04,3.36-34.95,14.98-35.98,29.39-.49,6.85,3.41,12.5,10.13,14.43,8.68,2.5,18.37,1.9,26.63-1.94l20.54-9.56c21.99-10.23,38.91-4.04,37.9.5-.94,4.25-12.41-5.83-33.03,4.46l-25.33,12.64c-10.1,5.04-21.16,6.72-32.43,6.52-10.29-.19-18.66-3.56-26.81-9.26C8.42,110.3.03,88.16,6.26,65.87,14.3,37.13,42.14,21.15,70.03,12.81,97.24,4.69,124.64.92,153.03,0l46.74.36c4.79.04,9.07,2.72,11.25,5.65,6.86,9.25-1.62,21.37-.11,27.51l3.44,13.96c1.47,5.97-2.03,10.98-7.44,14.05l4.08,14.97c1.18,4.35-.54,8.53-4.34,10.3s-8.26.67-11.03-3.12c-5.67-7.77,2.76-18.82-5.58-26.29-.76-.68-1.93-.9-2.61-.75-3.1.68-.61,10.27-9.86,12.25-4.32.93-9.81-1.07-10.96-6.26-.35-1.58-.22-3.59-1-4.37-1.57-1.56-3.52-1.08-5.62-.58l-38.77,9.21-35.78,9.23Z"/>
        <g>
          <path class="cls-7" d="M63.96,25.72l-1.39,2.73C32.08,39.72,2.94,69.35,24.27,102.08l1.74-6.1c1.46-3.54,5.58-11.08,9.68-9.5,2.22-1.2,3.76-1.26,4.15,1.57l-4.94,5.53c-6.13,6.87-4.84,15.98,2.12,22.02s15.6,7.63,24.97,9.47c-22.69,4.73-45.88-16.24-49.21-39.42-2.36-16.46,4.91-31.36,16.7-42.54,9.37-8.89,20.69-14.84,32.33-19.57,2.24-.66,2.67-.11,2.15,2.18Z"/>
          <path class="cls-5" d="M161.98,44.74l-44.33,12.57-30.47,7.59c-17.58,4.38-33.23,12.45-47.35,23.15-1.5-.25-2.94-.44-4.15-1.57-.6-.55-1.21-1.54-.81-1.93,14.34-13.83,36.16-21.46,55.18-26.96l55.01-13.83,1.65,1.65c4.52-.41,9.1-1.41,13.75-3.02.62-.12,1.26,1.38,1.51,2.36Z"/>
          <path class="cls-12" d="M197.9,34.94l2.13.47,2.82,14.43c1.22.76,2.26,1.65,3.1,2.68-3.61,1.39-6.52,4.56-5.61,9.05l1.62,8.05c.04,2.82.33,5.72.88,8.71l-2.01,1.33c-1.84-1.29-2.08-3.08-1.49-5.5,2.51-10.19-4.13-22.42-12.95-21.79-2.16.16-5.87,1.44-6.49,4.12-1.62,1.52-3.25,3.1-4.88,4.75l-2.44-.76c-1.95-3.25-2.86-6.86-6.84-9.23,7.39-6.82,19-9.59,26.83-16.94.88-.83,1.72-1.72,2.8-1.91,1.27-.23,2.11,1.34,2.52,2.54Z"/>
          <path class="cls-9" d="M192.12,25.56c-2.34,2.58-5.2,2.93-4.5-1.04l-.98-2.16,2.87-5.97c.18-2.7.69-4.54,1.53-5.53-29.73-1.25-58.96,1.12-87.35,5.86l-1.71-1.78c-3.68.59-5.77.07-6.25-1.54,25.88-5.42,52.13-7.38,79.08-6.75,6.7.16,14.73-1.18,20.83,1.23,3.18,5.28-.89,13.11-3.51,17.68Z"/>
          <path class="cls-25" d="M192.12,25.56c-6.05,10.52-18.36,15.84-30.14,19.18-5.73-2.33-11.74,4.05-15.26.66l.42-2.27,28.16-10.15,5.3-3.55c2.15-2.93,4.49-4.57,7.03-4.91,1.1,1.27,2.92,1.24,4.5,1.04Z"/>
          <path class="cls-26" d="M202.88,33.55c1.49,7.58,9.06,16.66,3.07,18.96-2.13.69-4.69-.11-5.22-2.85l-2.83-14.72c-.45-2.33,1.14-4.57,1.83-6.64,1.75.86,2.8,2.61,3.14,5.25Z"/>
          <path class="cls-23" d="M95.73,13.4c1.93,1.3,4.16.94,6.25,1.54l-3.75,2.63c-10.16,1.82-20.04,4.86-29.68,8.52l-4.59-.36c-1.07-.52-1.81-1.26-2.15-2.18,10.98-4.46,22.4-7.83,33.91-10.15Z"/>
          <path class="cls-6" d="M202.88,33.55c-2.53-.31-3.12-2.91-3.14-5.25l3.95-11.88c1.03-3.09.07-6.03-1.72-8.79,3.48-.33,5.51,2.69,5.69,6.03.4,7.39-4.45,13.43-4.77,19.89Z"/>
          <path class="cls-14" d="M200.83,79.65l.07-9.06c0-.68.49-1.05,1.06-.98.51,2.54,5.44,9.65,1.3,10.78-.67.18-1.74-.25-2.43-.73Z"/>
          <path class="cls-1" d="M179.9,56.49c-.41,1.75-.34,3.65-1.84,5.35-.84.95-2.41,1.26-3.52.81-.74-.3-1.4-1.25-1.95-2.17,4.67-2.29,4.54-7.12,7.32-3.99Z"/>
          <path class="cls-22" d="M187.63,24.52c-3.55,5.3-8.74,9.57-15.08,11.82l-25.83,9.06-52.01,13.04c-18.68,4.68-36.11,11.16-51.9,22.08l-7.13,5.96c-6.12,5.12-10.48,12.34-9.11,21.28-11.55-11.35-14.11-27.96-8.83-43.15,6.47-18.63,28.37-31.79,46.22-38.88,12.23-4.86,25-8.93,38.02-10.78l29.89-4.25,6.02-.55c18.04-1.64,35.7-1.95,54.03-.68,1,5.89-1.41,10.75-4.29,15.05Z"/>
        </g>
      </g>
      <g>
        <path class="cls-4" d="M31,181.57l-.9,2.71c-7.58,2.67-13.59,6.63-18.03,11.88l-2.27.24c-.96,1.89-1.21,3.91-1.25,5.99-.18,8.26-.28,34.59,1.66,41.25,3.05,10.48,20.49,16.84,30.4,18.38,49.89,7.71,109.92-4.38,148.78-37.84,24.77-21.33,26.7-43.83,25.37-74.33-.52-11.95-1.23-27.18-8.25-37.21l-3-1.02c-8.12-11.93-21.28-19.12-35.23-21.93l-2.06-2.39c-23.83-3.71-31.34,9.63-34.23,4.64-2.63-4.53,10.17-11.62,21.97-12.25,20.32-1.1,40.42,6.46,54.7,20.99,7.27,7.4,11.19,16.85,13.04,27.03,2.8,15.5,3.72,30.9,2.83,46.58-4.24,74.79-101.52,103.09-167.55,99.53-23.19-1.25-56.66-8.88-56.79-33.34L0,204.54c-.08-15.63,15.67-21.99,30.82-27.08,1.05-.35,2.2,1.64,1.58,2.12-.46.36-1.43,1.39-1.41,1.99Z"/>
        <path class="cls-18" d="M9.8,196.4c-.86,3.61-.36,7.23,1.87,10.22l1.14,2.8.29,29.17c1.99,15.79,25.66,20.76,39.43,21.56,59.61,3.46,150.69-16.25,159.19-86.75l-.75-30.17c.82-2.52.64-4.4-.53-5.64,1.56-8.27.42-17.5-3.94-24.95,5.63,4.4,8.33,16.34,9.03,25.16,2.65,33.57,3.56,61.27-23.52,86.03-37.27,34.09-96.61,45.94-145.92,40.53-15.56-1.71-37.76-9.28-38.16-23.76l-.93-33.04c-.12-4.27.38-8.08,2.78-11.17Z"/>
        <path class="cls-2" d="M11.67,206.62c3.94,5.29,18.82,8.85,27.7,9.5,42.3,3.1,91.85-9.89,128.89-31.12,17.95-10.29,38.44-27.64,42.18-47.41l2.38-.86.91,36.75c-1.3,19-9.58,34.99-23.28,47.71-12.29,11.41-25.79,20.2-41.76,26.42-30.55,11.91-63.56,16.91-96.3,14.54-12.21-.88-23.61-4.25-33.64-10.28-5.74-3.45-7.68-8.93-7.73-15.26l-.21-28.07c0-.98.33-1.7.86-1.91Z"/>
        <path class="cls-24" d="M174.02,170.87c-2.52-.08-4.87-.36-7.11-1.49.15-2.25,1.71-4.19,4.7-5.8l3.65-3.88-.36-56.91,2-1.21c0-1.07.37-2.12.85-3.27,10.52,4.44,20.23,11.74,23.78,23.54,2.55,8.46.47,17.78-4.12,25.4-5.88,9.77-14.98,16.8-23.39,23.62Z"/>
        <path class="cls-10" d="M176.9,101.58l.16,58.82c-2.87,4.13-6.38,6.8-10.15,8.98l-10.41,6.02c-1.23.71-3.25.35-4.45-.63l-.02-76.29c5.42-4.35,18.86-1.53,24.87,3.1Z"/>
        <g>
          <path class="cls-17" d="M106.63,198.73c-1.03,1.12-1.85,2.88-3.45,3.17l-26.33,4.76c-3.07.55-3.71-3.27-3.72-5.56l-.02-60.36c0-2.18,2.97-3.94,4.81-3.98l23-.61c2.18-.06,4.44,1.4,4.49,3.81l1.22,58.79Z"/>
          <path class="cls-16" d="M101.86,167.82l-1.43,4.74c-7.57-1.28-14.47-1.09-21.87-.03.2-5.09-.05-10.08-.73-14.97l-.04-14.03c-.02-5.73,13.03-4.57,23.7-3.71l.36,28Z"/>
          <path class="cls-8" d="M101.86,167.82l.16,24.77c0,1.35-1.15,3.41-2.49,3.75-7.07,1.74-13.9,3.69-21.35,3.14l-.35-41.92c.96.38,1.07,1.56,1.09,2.89l.17,10.77c6.82-2.54,13.8-1.93,20.78-.37,1.15-1.24,1.47-2.48,1.99-3.04Z"/>
        </g>
        <g>
          <path class="cls-20" d="M68.59,201.12c.03,2.19.06,6.79-3.14,7.08-8.97.83-18.84,1.47-27.57-.63-2.89-.8-1.81-6.27-1.81-8.38l.07-33.54c0-3.49,2-6.32,5.7-6.38l21.82-.32c2.51-.04,4.39,2.06,4.43,4.58l.51,37.59Z"/>
          <path class="cls-15" d="M64.2,202.33c-7.98,1.01-14.76,1.07-22.84.26l-.2-39.59,22.28-.54.75,39.87Z"/>
        </g>
        <g>
          <path class="cls-11" d="M161.57,94.03c5.68.79,10.96,2.08,16.18,4.28,1.8,1.95,1.73,2.6-.85,3.27l-2.04,1c-6.05-3.52-14.3-5.86-20.96-2.97l-1.87-1.13.02,76.29c4.16-1.42,8.5-3.83,12.68-6.44l2.18,1.05c3.78-1.47,6.15-.97,7.11,1.49l-3.86,3.13c-16.19,10.39-33.55,17.96-51.9,23.92-2.77.9-5.16.96-7.29-.49l-.13-69.83c0-3.62.05-6.72,3.83-8.27,11.13-4.57,28.68-6.38,28.74-.31l.64,61.93c2.31.84,4.73-1.18,4.73-3.49l.18-81.26c3.91-3.4,8.43-2.75,12.6-2.17Z"/>
          <path class="cls-3" d="M139.7,120.7l-.59,45.14c-1.42.57-3.31.49-5.67-.26l-16.35-.58c-.66-1.57-1.08-3.23-1.24-4.98l-.03-36.27c6.74-3.82,18.78-6.98,23.88-3.05Z"/>
          <path class="cls-13" d="M115.85,160.02l1.13,2.88c.25.56,1.79-.14,2.73.03,8.79,1.61,14.97-.85,19.03,2.4l.96-44.63-.3,62c-9.33,4.69-23.51,11.61-23.52,5.78l-.03-28.46Z"/>
          <path class="cls-19" d="M152.05,174.77l-.02-76.29.02,76.29Z"/>
        </g>
      </g>
    </g>
  </g>
</svg>